<?xml version="1.0" encoding="UTF-8"?>
<svg id="Livello_2" xmlns="http://www.w3.org/2000/svg" viewBox="0 0 273.8 273.99">
  <defs>
    <style>
      .cls-1 {
        fill: none;
      }

      .cls-2 {
        fill-rule: evenodd;
      }
    </style>
  </defs>
  <path class="cls-2" d="M232.64,232.65c-25.53,25.72-59.45,39.82-95.65,39.82s-70.12-14.1-95.65-39.82C15.43,207.12,1.33,173.2,1.33,137S15.43,66.69,41.35,41.16C66.88,15.62,100.79,1.52,137,1.52s70.12,14.1,95.65,39.63c25.72,25.53,39.82,59.64,39.82,95.84s-14.1,70.12-39.82,95.65M233.79,40.2C207.88,14.29,173.58,0,137,0S66.12,14.29,40.01,40.2C14.1,65.93,0,100.41,0,137s14.1,70.88,40.01,96.79c26.1,25.91,60.4,40.2,96.99,40.2s70.88-14.29,96.79-40.2c25.91-25.91,40.01-60.21,40.01-96.79s-14.1-71.07-40.01-96.79M231.12,230.93c-18.48,18.67-41.16,30.87-66.12,36.2,0-.95-.19-5.9.57-8.95.95-3.24,4.96-4.57,4.96-4.57,1.33-.38,2.1-.95,2.28-1.91.19-1.14-.95-2.1-1.33-2.67v-4l-.19-.19-3.62-4v-3.24c19.63-6.1,37.35-17.91,50.5-33.72v-.19l2.86-3.43c13.72-18.29,21.15-40.2,21.15-63.26,0-26.1-9.53-51.07-26.86-70.31-17.34-19.25-40.77-31.25-66.31-34.3h-.19c-.38-.19-.95-.57-1.52-.95-12.96-8.19-27.25,1.52-27.44,1.71-24.2,4-46.49,16.58-62.5,35.25-16.77,19.05-25.72,43.44-25.72,68.59,0,23.24,7.43,45.35,21.72,63.83,13.34,17.15,31.82,30.11,52.4,36.58l-5.91,7.62v3.81c-.38.57-1.33,1.71-1.14,2.86.38,1.14,1.91,1.91,2.86,1.91.38.19,1.72.95,2.48,2.86.76,2.1.76,8.38.57,9.72-23.05-5.72-44.4-17.91-61.73-35.25C17.53,205.97,3.81,172.44,3.81,137s13.72-68.97,39.06-94.13C68.02,17.72,101.55,4,137,4s68.97,13.72,94.12,38.87c24.96,25.15,38.87,58.5,38.87,94.13s-13.91,68.97-38.87,93.94M164.24,267.33c-2.67.57-5.53,1.14-8.38,1.52v-7.43l-.38-.38h-42.49l-.38.38v6.48c-2.48-.38-4.76-.95-7.05-1.52,0-.76.19-6.48-.38-9.34h60.02l-.38.95c-.95,3.24-.57,8.57-.57,9.34M155.1,268.85c-5.91.95-12,1.33-18.1,1.33-8.01,0-15.82-.76-23.63-2.1v-6.1h41.73v6.86ZM168.63,253.61c-.95.57-2.1,1.33-2.86,2.48h-60.97c-.38-1.14-1.14-1.91-1.71-2.48h65.55ZM133.95,245.79c1.33.19,2.67.38,3.43.38h.19c1.14,0,3.24,0,5.52-.57h7.43l1.14,1.14.38.95c0,.76.95,3.05,3.24,3.05.95,0,1.52-.57,1.71-.95.38,0,1.14,0,1.53-.38.19-.38.57-.76.57-1.33l.76-.57c.38-.19.38-.76.38-1.14l.76-.57v-.19h9.53v3.81l.19.19c.38.38,1.33,1.33,1.14,2.1,0,.38-.76.76-1.33.95h-.19l-68.21.19h-.38c-.76,0-1.91-.57-2.1-1.33-.19-.95.76-1.91.76-1.91l.19-.57v-3.24h33.35ZM119.09,238.17l.38.19c-.57.57-1.71.95-2.48,1.33-2.1.19-3.05.38-3.43.95v.38c-.95,0-1.52.38-1.52.95s.19,1.14.95,1.71c.57.38,1.33.76,2.86.57l.95-.38c1.52-.38,2.48-.57,3.43-.19,1.53.38,5.52.19,7.43-.57.95.76,2.1,1.33,3.24,1.71h-29.72l5.14-6.67h12.77ZM115.65,207.88c0,2.09-.19,6.48-.57,8-.19,1.34-.38,5.15.76,8.19.57,1.91,1.71,2.29,2.29,2.29h.76c0,1.52.38,6.1.38,7.43,0,.57-.19,1.33-.19,1.9-.19.57-.38,1.14-.38,1.52h-10.48c-18.1-5.14-34.68-15.43-47.63-29.34h55.06ZM83.07,203.88v3.62h-22.87c-1.14-1.14-2.1-2.48-3.24-3.62h26.1ZM59.45,199.49v3.81h-2.86c-.76-.95-1.71-2.1-2.48-3.05l-.57-.76h5.9ZM58.11,191.3v7.62h-4.38v-7.62c0-1.33.95-2.28,2.29-2.28,1.14,0,2.1.95,2.1,2.28M52.4,187.87h7.05v11.05h-.76v-7.62c0-1.52-1.33-2.86-2.67-2.86-1.52,0-2.67,1.33-2.67,2.86v7.62h-.19l-.76-.95v-10.1ZM52.59,185.01h-2.1v-1.33h2.1v1.33ZM50.49,185.39h1.53v12c-.57-.76-1.14-1.52-1.53-2.28v-9.72ZM80.41,181.01v-5.72c0-1.34-1.33-2.67-2.67-2.67-1.53,0-2.67,1.33-2.67,2.67v5.72h-1.52v-8.95c0-4-3.43-6.67-6.86-6.67-3.24,0-6.67,2.48-6.67,6.67v8.95h-1.71v-5.72c0-1.34-1.14-2.67-2.67-2.67-1.34,0-2.48,1.33-2.48,2.67v5.72h-2.67v-9.91l16.2-8.57,16.39,8.77v9.72h-2.67ZM75.45,181.01v-5.72c0-1.14.95-2.29,2.29-2.29,1.14,0,2.1,1.14,2.1,2.29v5.72h-4.38ZM71.45,172.44v8.58h-9.53v-8.58c0-2.67,2.29-4.76,4.76-4.76,2.67,0,4.76,2.1,4.76,4.76M66.69,167.1c-2.86,0-5.15,2.48-5.15,5.33v8.58h-1.14v-8.95c0-3.81,3.24-6.1,6.29-6.1,3.24,0,6.48,2.28,6.48,6.1v8.95h-1.14v-8.58c0-2.85-2.28-5.33-5.33-5.33M53.54,181.01v-5.72c0-1.14.95-2.29,2.1-2.29,1.33,0,2.28,1.14,2.28,2.29v5.72h-4.38ZM83.07,183.3h-32.58v-1.91h32.58v1.91ZM66.69,185.01c-2.1,0-3.81,1.33-4.76,3.05v-2.67h.76v-1.71h8.19v1.71h.57v2.67c-.76-1.71-2.48-3.05-4.76-3.05M61.92,190.35c0-2.67,2.29-4.95,4.76-4.95,2.67,0,4.76,2.29,4.76,4.95v12.96h-9.53v-12.96ZM59.45,185.39v2.1h-7.05v-2.1h.57v-1.71h5.72v1.71h.76ZM59.83,185.39h1.71v17.91h-1.71v-17.91ZM62.3,185.01h-3.24v-1.33h3.24v1.33ZM73.74,203.3h-1.71v-17.91h1.71v17.91ZM74.31,185.01h-3.05v-1.33h3.05v1.33ZM74.12,187.49v-2.1h.76v-1.71h5.53v1.71h.57v2.1h-6.86ZM80.22,198.92v-7.62c0-1.52-1.14-2.86-2.67-2.86-1.33,0-2.67,1.33-2.67,2.86v7.62h-.76v-11.05h6.86v11.05h-.76ZM75.45,198.92v-7.62c0-1.33.95-2.28,2.1-2.28,1.33,0,2.29.95,2.29,2.28v7.62h-4.38ZM74.12,199.49h6.86v3.81h-6.86v-3.81ZM81.55,185.39h1.52v17.91h-1.52v-17.91ZM83.07,185.01h-2.1v-1.33h2.1v1.33ZM47.82,168.82h.19l18.67-10.67,18.86,10.67h24.96c0,.38.19.95.19,1.33h-24.96l-18.86-10.29-.19-.19v.19l-18.86,10.29h-9.91c-.19-.38-.19-.95-.38-1.33h10.29ZM125.37,38.68v.19c.19,0,.38,0,.38-.19l.76-.38.38.38c-.38.19-.76.57-1.14.76l-2.28,1.14c-4,2.1-7.81,3.81-7.81,3.81l-.38.38v.38l.19.19-5.91,2.86h-.19l-.38.76c.19.57.95.76,1.52.76.57.19,4.95,1.14,9.72,2.29.38,1.33.76,2.86.76,3.05-.19.19-.76,2.1-1.14,3.43-.38,1.33-.57,1.91-.76,2.29,0,.38,0,.95.38,1.33.19.19.38.38.95.38s1.14-.19,1.52-.19v-.19l-.19.95-.19.38c0,.38.38,1.14.95,1.53l.19,1.33h.38l.57.19v1.14c0,.19,0,1.14.57,1.9.19.38.95.95,2.1.95.76,0,2.1-.38,3.43-.95.57,0,1.72.19,1.72.76.38.95.95,5.34.76,5.91-.38.57-.95.95-1.91,1.33-.38,0-1.34.19-2.29.19-1.33,0-2.86,0-3.81.38-2.1.76-4.19,2.86-6.1,5.9-2.86.95-3.24,3.05-3.24,3.24-3.81,1.72-4.76,8.77-4.95,9.72-.38.38-1.71,2.48-2.86,4.76-.95-1.14-2.1-2.48-3.62-3.81-5.72-5.53-8-8.38-8.95-9.53,0,0-.95-1.33-1.14-2.28v-.19c-.19-.38-.19-1.14-.95-1.71,1.33-.38,1.91-1.71,2.1-2.67.95-.38,1.53-.76,1.71-1.33.38-.57,0-1.14,0-1.14l-.38-.19-2.67-.19c.76-.95,1.52-2.1,1.71-4.19.19-2.1-.38-4-.76-5.53-.38-.95-.57-1.71-.57-2.67-.19-2.1.95-2.86.95-3.05l.19-.38-.19-.38c-.57-.19-.95,0-1.52.19.76-5.9-2.67-7.43-2.86-7.43l-.38.19v.38c.76.76,1.34,1.9,0,4.76-.38.76-.57,1.52-.76,2.1l-.38-.38-.38.19c-.76,1.52-.76,2.86-.57,4.76v1.33c0,1.34-.38,1.91-.57,2.86-.19.57-.57,1.34-.57,2.67-.19,1.91.76,3.62,1.34,4.57l-16.39-.38-.38.19c0,.19-.19.76-.19,1.14h-1.52c-1.53,0-2.1-.38-2.48-.57-.57-.38-.95-.76-.95-1.33s.19-.95.38-1.34c.19-.19,1.14-.76,1.91-.76.95.19,1.71.95,2.28,2.48q.19.19.38.19h.19l.19-.19v-.19c0-1.9-.95-3.43-2.28-4.19s-3.05-.76-4.57.19c-2.29,1.34-3.05,4.38-1.72,6.86,1.52,2.67,4.38,3.24,6.67,3.62.38.38,1.71.95,10.1,3.81,1.71,0,6.1.57,7.05.95,2.1.95,6.29,9.15,8.77,13.91,1.14,2.29,2.1,4.19,2.67,4.76,1.52,2.86,6.67,8.38,9.53,8.38,2.1,0,4.19-2.48,6.67-5.33l.95-1.14c.38.95.76,1.71,1.14,2.29-.38.57-.76,1.14-.95,1.71-1.14,2.1-2.67,6.48-1.52,9.91-1.53,1.71-4.96,6.29-4.19,10.86.38,2.67.57,4.38,1.34,5.33-.57,1.71-3.05,9.91-1.34,12.38l.76.76c0,.95-.38,4-.38,5.53,0,1.71,0,2.1.19,4.19,0,0,.19,1.14.19,2.28,0,.38.19,1.52.19,3.05v.38h-24.77l-18.86-10.67h-.19l-18.86,10.67h-10.48c-3.24-10.1-4.76-20.58-4.76-31.44,0-24.96,9.14-49.16,25.34-68.02,16.01-18.67,38.11-31.06,62.12-34.87l5.34,4.57ZM154.33,57.35l-5.33-4.19.19-.57c1.91-7.24-2.48-11.62-2.67-11.82h-.57v.57s4,4,2.48,10.48l-.57-.57c.19-.57.19-1.14.19-1.91.19-4.38-3.05-8.38-6.29-10.48-3.62-2.28-6.29-2.86-10.29-2.1-.95.19-2.29.76-3.81,1.52l-.57-.57c1.71-.95,3.81-1.52,3.81-1.52l.38-.57-.57-.38c-.19,0-3.43.95-5.15,2.48l-4.57-4.19c2.67-1.71,14.86-8.38,25.91-1.33,11.81,7.43,9.72,20.77,7.43,25.15M206.54,104.03c0-1.71,1.14-3.05,1.71-3.62.19.57.19,1.14.38,1.91.57,1.91.95,3.24-1.71,5.52-.19-.76-.57-2.28-.38-3.81M204.26,117.18c.95-1.33,2.29-2.85,4.38-3.24,1.14-.38,2.67-.57,3.62-.76-.95,2.1-2.48,3.62-6.48,3.81-.57,0-1.14,0-1.53.19M204.07,114.13c-2.29-2.1-2.67-4.38-1.53-6.48.57,1.33,1.91,4.19,1.53,6.67v-.19ZM198.92,124.8c.76-.76,2.67-1.52,4-1.71,1.14-.19,2.48-.38,3.24-.38-1.91,3.24-4.38,4-5.72,4.19-.57.19-2.48.19-3.62,0h.19v-.19c.57-.57,1.33-1.33,1.91-1.91M197.78,123.09c-.57-1.71-1.91-6.86,1.14-9.15.38.95.95,2.86.95,4.57,0,2.1-.95,4.38-1.9,5.91v.19c0-.57,0-1.14-.19-1.53M187.68,128.42c0-1.72,1.33-5.72,4.76-7.24-.19.76-.57,2.1-.57,2.67v.19c0,3.81-.76,6.29-2.48,7.43v.19l-.76.38-.19.19h-.19l-.57.38v-4.19ZM189.01,132.8c1.14-.57,3.43-.57,4.96-.57h.38c.95,0,2.48-.57,3.43-.95-1.14,2.29-4.57,4-7.24,4-1.33,0-3.24-.38-4.38-.57.95-.57,1.91-1.33,2.86-1.91M177.96,133.38c.95-2.29,4-4.57,5.53-5.53-.19.95-.57,2.1-.57,2.86-.19,2.48-.76,5.72-3.24,7.81v.19c-.57.38-1.14.95-1.71,1.33-.19-1.14-1.14-4.19,0-6.67M180.06,139.47c3.24-1.34,6.67-.95,8.95-.57h.95c.76.19,1.52.19,2.1,0l-.57.38c-3.24,2.67-3.62,3.05-8.19,2.67-2.1-.19-4.57-.19-5.91-.19.95-.76,1.72-1.53,2.67-2.29M181.2,168.44c.76-1.14,1.33-2.29,1.52-3.62.38-3.81-2.48-5.72-4.19-6.67,2.29-1.14,2.67-4.19,2.48-5.72l-.38-.57h-10.29l-.38-.57h.57c11.05.38,15.81-2.86,17.91-5.53v-.57l-.38-.19s-1.53.38-4.19,0l-.95-.19c-2.28-.38-5.9-.95-9.72.76v-.19c1.14-.95,2.1-1.72,3.05-2.67.76,0,4.19-.19,6.86,0,4.95.38,5.72,0,8.95-2.67.57-.57,1.33-.95,2.1-1.52v-.57l-.57-.19s-1.52.57-3.43.38l-.95-.19c-1.72-.19-4.57-.57-7.24,0,.95-.76,2.1-1.71,3.05-2.48.19.19,3.62.57,5.53.57,3.43,0,7.62-2.1,8.38-5.52l-.19-.38h-.38s-2.67,1.33-4,1.33h-3.24c1.33-.95,3.05-2.1,4.76-3.62h4.76c1.52-.38,4.57-1.33,6.67-5.33v-.38l-.19-.19c-.19,0-2.67-.19-4.19.19-.76.19-1.71.38-2.48.76.76-.95,1.52-2.1,2.28-3.43.19-.19.95-1.71,3.05-1.71,4.95,0,6.48-2.48,7.62-4.95v-.57l-.38-.19c-.19.19-2.67.57-4.57.95-1.33.38-2.48,1.14-3.43,1.91.76-1.91,1.52-3.81,2.1-5.91,3.24-2.86,3.05-4.57,2.48-7.05-.38-1.14-.57-2.29-.57-2.29l-.19-.38h-.38c-.19,0-2.67,1.72-2.86,4.76,0,2.1.38,4.19.57,4.57-.19,1.52-.76,2.86-1.14,4-.19-3.05-1.91-5.72-2.1-5.9l-.38-.19-.19.19c-2.1,2.28-1.71,5.52.95,8l.38,1.34c-1.14,2.29-2.29,4.19-3.62,5.72.38-.95.76-2.1.76-3.24,0-2.48-1.34-5.15-1.34-5.33l-.19-.19h-.38c-4,2.29-2.86,8.2-1.91,10.29.19.76-.38,2.28-.57,2.86-1.71,1.52-3.24,2.86-4.76,3.81,1.14-2.1,1.14-4.76,1.14-5.9v-.19c0-.95.57-3.24.57-3.24v-.57h-.38c-4.38,1.52-6.29,6.29-6.29,8.38,0,2.48.19,4.57.19,4.76-1.52.95-3.05,2.1-4.57,3.43.95-1.91,1.33-4.19,1.52-5.72,0-1.14.76-3.81.76-3.81v-.38h-.57c-.19,0-5.53,2.86-7.05,6.48-1.14,3.05,0,6.67.38,7.43-1.52,1.33-3.05,2.67-4.76,4.19-.57.57-1.33,1.33-2.1,2.1,4.57-7.62,1.9-13.91,1.71-14.48l14.1-52.97h.76c.95,0,1.52-.57,1.9-1.14.19-.76,0-1.52-.57-2.1l-.38-.19c3.62-4.57,4.19-6.86,4-7.24v.38l.57-15.44-.19-.38-.57.19c-.19.57-7.43,12.76-8,14.1-.76,1.33,0,6.1.19,7.43l-.57.19c-.95.19-1.34.95-1.52,1.71,0,.76.57,1.53,1.33,1.71l.57.19-15.24,56.21c-1.14,1.33-2.29,3.05-2.67,4.76-.76,2.1-.57,4-.19,5.53v.57c-.95-.95-1.91-2.1-1.91-2.48,0-.57.57-5.72,1.91-12.77,1.14-6.86.95-10.48.38-14.48-.57-3.81-.19-6.29.76-11.05v-.57c.76-4.57,1.9-13.34,1.52-18.67-.38-4.19-1.33-5.53-1.71-5.9-.19-.95-.76-3.81-7.43-4.76-1.14-.19-2.1-.19-3.05-.19-2.1,0-4.19-.95-6.1-2.48-1.52-1.33-2.29-3.05-2.29-4.57.19-2.86-.38-4.57-.76-5.15l.19-.38v-.38s-2.1-3.05-1.71-6.29c.38-.38,1.33-1.72,2.1-3.62l.57.57-.19.38.19.57,5.91,4.76h.38l.38-.19c2.28-3.81,4.76-16.58-4.76-24.77,24.77,3.05,47.63,15.05,64.4,33.73,17.15,19.25,26.67,43.82,26.67,69.74,0,10.86-1.53,21.34-4.76,31.44h-55.26ZM179.11,170.15c.76-.38,1.14-.76,1.71-1.33h55.45c-.19.38-.19.95-.38,1.33h-56.78ZM169.01,172.06c.57-.76,1.33-1.34,2.29-1.72,1.9,1.14,4.19,1.34,6.48.57l.57-.19h57.35c-.19.38-.38.95-.57,1.34h-66.12ZM225.6,183.3v-5.52c0-1.34.95-2.29,2.1-2.29,1.34,0,2.29.95,2.29,2.29v5.52h-4.38ZM219.12,183.3v-5.52c0-1.34.95-2.29,2.29-2.29,1.14,0,2.28.95,2.28,2.29v5.52h-4.57ZM212.83,183.3v-5.52c0-1.34.95-2.29,2.28-2.29,1.14,0,2.1.95,2.1,2.29v5.52h-4.38ZM206.54,183.3v-5.52c0-1.34.95-2.29,2.1-2.29,1.33,0,2.29.95,2.29,2.29v5.52h-4.38ZM200.06,183.3v-5.52c0-1.34,1.14-2.29,2.28-2.29s2.29.95,2.29,2.29v5.52h-4.57ZM193.78,183.3v-5.52c0-1.34.95-2.29,2.1-2.29,1.34,0,2.29.95,2.29,2.29v5.52h-4.38ZM187.49,183.3v-5.52c0-1.34.95-2.29,2.1-2.29,1.33,0,2.28.95,2.28,2.29v5.52h-4.38ZM181.01,183.3v-5.52c0-1.34.95-2.29,2.28-2.29,1.14,0,2.1.95,2.1,2.29v5.52h-4.38ZM174.72,183.3v-5.52c0-1.34.95-2.29,2.1-2.29,1.33,0,2.29.95,2.29,2.29v5.52h-4.38ZM168.43,183.3v-5.52c0-1.34.95-2.29,2.1-2.29,1.33,0,2.28.95,2.28,2.29v5.52h-4.38ZM166.91,185.97v-2.28h63.26c-.38.76-.76,1.52-1.14,2.28h-62.12ZM215.31,198.92v-6.86c0-1.71,1.52-3.05,3.24-3.05s3.05,1.33,3.05,3.05v5.91l-.76.95h-5.52ZM216.45,203.3v-3.81h4l-.19.19c-.95,1.34-1.91,2.48-2.86,3.62h-.95ZM166.72,207.49v-3.62h50.3c-1.14,1.14-2.1,2.48-3.24,3.62h-47.06ZM160.24,240.65c-1.14-1.52-2.48-3.05-2.48-3.05.19-.57.19-2.48-.76-3.62-.38-.38-.76-.57-1.33-.57-1.52-1.14-2.29-5.34-2.86-10.1l.19.19h13.72v17.15h-6.48ZM126.71,242.55c-1.91.57-4.95.57-6.1.38-1.34-.38-2.29-.19-4,.19l-.95.19c-.95.19-1.71.19-2.1-.19l-.76-1.14c.19-.19.95-.19,1.52-.38.57,0,1.14-.19,1.53-.38.95-.38,4.38-2.1,5.15-2.48.95.19,2.48.76,4.76,3.05l.95.76ZM166.91,148.24l-.95,4.19-.76.76-.19-1.14,1.33-5.15c.19.57.38.95.57,1.34M168.05,151.1c.76-1.14,1.72-2.1,2.67-3.05,4.57-3.62,9.15-2.86,12-2.29h.95c1.52.19,2.67.19,3.43.19-2.29,2.29-6.86,4.76-16.58,4.57h-.38c-.76,0-1.52.19-2.1.57M167.29,150.52l.38-1.14.19.38-.57.76ZM167.67,154.53l-.19.95-1.33-1.14.57-1.34.95,1.52ZM169.2,159.1l-.76-.57-.19-.38v-.19c.19-.38.19-.95,0-1.52l.19-1.91v-.38l-1.14-1.71c.57-.38,1.14-.76,1.91-.95l.95,2.1c-.19.95-.76,4.38-.95,5.52M163.67,170.34c.38.95.57,1.72.95,2.1h-.19c-.38-.57-.57-1.33-.76-2.1M161.96,167.29l-4.95,18.29c0-.76.19-1.52.19-2.29,0-.95.19-2.1.38-3.43l4-14.86c0,.76.19,1.52.38,2.29M162.91,159.67l.76-2.48v.19l.76.57-1.52,5.72c-.19-1.34-.19-2.67,0-4M161.39,162.34l-3.43,12.96c0-2.29.19-4.38.19-6.29,0-4.57,0-12.19.19-18.1.57,1.72,1.34,3.43,2.86,4.19,0,0,.76.57,1.71,1.33-.57.76-1.52,2.48-1.52,5.9M147.09,127.28l.19-.19c1.14-.95,3.24-2.67,4-5.15-.38,3.62-1.34,12.2-1.34,13.53,0,.38-.19.76-.19,1.14v.38c-.38-1.34-1.33-2.86-1.91-4l-.38-.57c-1.14-2.1-.57-4.57-.38-5.15M146.9,133l.19.38c1.34,2.28,2.67,4.95,2.29,7.43-.38,1.14-.76,2.1-1.33,2.86l-.57.95c-1.71,2.1-4,5.14-4.19,8.76-1.71-5.72-1.53-11.24-1.14-14.48.19-3.62,2.48-8.19,3.81-10.29,0,1.14,0,2.86.95,4.38M151.48,171.29c-.38-1.14-1.14-2.67-2.29-4.76-1.71-3.05-3.81-6.67-4.76-10.1-1.34-4.76,1.71-8.57,3.62-11.24l.76-.95c.57-.95,1.14-2.1,1.33-3.24.38-1.53.38-3.24.57-4.38v-1.14c.19-1.53,1.34-12.77,1.53-14.86v-.38c.38-2.29.76-8,.76-9.72,0-2.1,1.14-24.2,4.76-28.39.57-.57.95-.95,1.53-1.14-2.67,3.05-2.48,9.53-2.48,12.57v.95c0,5.34.38,11.82,1.14,18.86.95,9.53.19,27.25-.19,31.06-.19,4.38-.57,17.91-.57,24.58,0,4.38-.57,10.1-.95,14.29-.19,2.29-.38,4.19-.38,4.96,0,1.33-.95,8.77-1.91,15.24-.95,5.52-1.71,10.67-1.71,12l-.19,1.14c-.38-4-.76-8.19-1.52-11.24-.19-.95-.38-2.1-.76-3.43-1.14-4-2.29-8.38-1.71-12.2.19-.95.38-1.9.95-2.85l2.1-7.05c.95-3.24,1.14-5.91.38-8.57M169.96,199.49v3.81h-3.24c.19-1.14.19-2.48.19-3.81h3.05ZM170.91,198.92h-4v-9.91h.95c1.71,0,3.05,1.33,3.05,3.05v6.86ZM170.34,199.49h3.43v3.81h-3.43v-3.81ZM174.15,199.49h4.19v3.81h-4.19v-3.81ZM179.29,198.92h-6.1v-6.86c0-1.71,1.34-3.05,3.05-3.05s3.05,1.33,3.05,3.05v6.86ZM178.72,199.49h3.43v3.81h-3.43v-3.81ZM182.53,199.49h4.19v3.81h-4.19v-3.81ZM187.87,198.92h-6.29v-6.86c0-1.71,1.33-3.05,3.05-3.05s3.24,1.33,3.24,3.05v6.86ZM187.3,199.49h3.24v3.81h-3.24v-3.81ZM191.11,199.49h4.19v3.81h-4.19v-3.81ZM196.25,198.92h-6.29v-6.86c0-1.71,1.52-3.05,3.24-3.05s3.05,1.33,3.05,3.05v6.86ZM195.68,199.49h3.43v3.81h-3.43v-3.81ZM199.49,199.49h4.19v3.81h-4.19v-3.81ZM204.64,198.92h-6.1v-6.86c0-1.71,1.33-3.05,3.05-3.05s3.05,1.33,3.05,3.05v6.86ZM204.07,199.49h3.43v3.81h-3.43v-3.81ZM207.88,199.49h4.19v3.81h-4.19v-3.81ZM212.64,199.49h3.43v3.81h-3.43v-3.81ZM213.21,198.92h-6.29v-6.86c0-1.71,1.33-3.05,3.05-3.05s3.24,1.33,3.24,3.05v6.86ZM170.91,153.38l-.19-.57h9.53c0,1.14-.38,4.57-3.05,4.95l-.38.38.38.38c.19,0,5.15,1.53,4.57,6.29-.19,2.28-1.9,4.38-4.38,5.33-2.48.95-5.14.38-7.05-1.53-1.53-1.33-1.91-3.05-1.33-4.57.76-1.72,2.48-3.05,4-3.05s3.43.38,4.38,1.33c.38.57.57,1.34.38,2.1-.38,1.52-1.34,2.28-3.43,2.1h-.19l-.38.38.38.57h.19c3.05.19,4-1.52,4.19-2.86.19-1.14,0-2.1-.57-2.86-1.14-1.14-3.24-1.71-4.95-1.71s-4,1.71-4.76,3.62c-.38,1.14-.76,3.43,1.52,5.72l.57.38c-4,2.1-4.19,9.91-4.19,10.86,0,12-.38,38.3-.38,41.92h-12.77l-.38.19c0-1.14-.19-2.28-.19-3.24.38-.76.57-2.48.57-3.81.19-1.33.95-6.48,1.71-12,.76-5.53,1.72-11.05,1.91-13.91l.19-.19,5.52-20.39c.38,1.33.76,2.67,1.34,4.19l.38.38.38-.19.95-.76v-.57s-1.52-2.86-2.29-6.48l1.91-7.24c.76.57,1.14.95,1.71.95l.95-.57c.38.57,1.34,1.14,1.72,1.14l.57-.19.19-.57c0-.38.57-3.62.76-5.72v-.19ZM171.67,133.38c.57,1.91,2.29,8.19-3.43,15.43-.76-1.33-2.67-4.76-1.53-8.77.76-2.86,3.62-5.52,4.95-6.67M184.63,79.07l.95.19-14.29,53.35c-.38.19-.76.57-1.34,1.14l14.67-54.69ZM187.68,76.79c.38.38.57.76.38,1.14,0,.38-.57.57-1.14.76,0,0-.57-.19-1.14-.19l-1.33-.38-.76-.19c-.57-.19-.76-.57-.76-.95s.38-.76.76-.95c1.52-.38,3.81.57,4,.76M188.44,66.31l-.57.19c-.38,1.33-1.91,7.43-2.29,8.77l-.57-.19c-.38-2.28-.76-6.1-.38-7.05.38-1.14,5.14-9.15,7.24-12.58l-.57,13.72c0-.19-.38,1.9-4,6.48l-.95-.19c.38-1.52,2.1-7.43,2.29-8.76l-.19-.38ZM165.19,116.42c.57,4,.95,7.43-.38,14.1-1.14,6.86-1.9,12-1.9,12.96,0,.76.76,1.52,2.48,3.43l-.95,3.62-.38.38v.38l.38,2.48.19.38,2.29,2.1c.76.57.57,1.34.38,1.72l-.57.57c-.57,0-1.71-1.14-2.28-1.71l-.76-.76c-.95-.95-2.1-1.52-2.1-1.52-2.67-1.9-3.05-7.24-3.05-7.43,0-.95.19-1.91.19-2.48.19-4,1.14-21.72.19-31.25-.76-7.05-1.14-13.53-1.14-18.86v-.95c-.19-3.24-.19-10.67,3.05-12.96,1.34-.76,3.05-.76,5.15.19,0,0,1.14.57,1.52,5.14.38,5.33-.57,13.91-1.33,18.48l-.19.57c-.76,4.76-1.33,7.43-.76,11.43M114.7,123.85c1.34-1.14,12.19-15.81,15.05-21.15,2.29-4,7.05-10.86,10.67-16.2l2.48-3.62c3.24-4.57,6.48-6.67,7.24-7.05.57.19,1.33.38,2.1.76-3.43,1.91-5.72,4.95-7.43,7.24-.57.76-.95,1.33-1.34,1.71-2.67,3.24-12.57,20.01-14.1,22.67-1.34,2.48-7.05,14.29-9.53,19.25l-.76,1.71-.57,1.34c-1.34,2.48-4.38,9.14-5.72,9.14s-1.72-.76-2.48-5.33c-.57-4.57,3.43-9.53,4.38-10.48M120.04,108.61l.57-.95c.76-.95,3.24-3.43,5.53-5.72l2.85-2.86c1.34-1.52,4.38-4.95,7.05-7.81-2.67,4.19-5.53,8.2-7.05,11.05-2.67,4.95-12.38,18.29-14.67,20.58-.57-3.05.76-7.05,1.72-8.77.76-1.71,2.67-4,4-5.53M123.66,84.22c1.72-.19,3.62-.38,5.53-.76,1.91-.38,3.81-.76,5.53-1.33-2.86,1.52-6.1,2.86-8.77,3.24-2.67.57-4,.76-5.72.95-1.14.19-2.48.38-4.19.57h-.19c.19-.57.95-1.72,3.24-2.1,1.71-.19,3.05-.38,4.57-.57M122.89,43.82c.95,0,1.72.57,2.29,1.52.57,1.53,1.91,2.67,4,3.81,1.14.76,3.81,1.91,6.86,3.24-.95.57-1.71,1.33-1.91,2.1-1.9-.57-8-2.1-13.34-3.24v-.19c-4.95-1.14-9.53-2.1-10.29-2.1l-.38-.19,6.1-2.86c2.1-.95,5.91-2.1,6.67-2.1M139.85,53.16l-.38-.19c-4-1.52-8.38-3.62-9.91-4.57-1.91-.95-3.05-2.1-3.62-3.43-.76-1.34-1.71-2.1-3.05-2.1-.76,0-3.43.95-5.33,1.52,1.52-.76,4-1.9,6.29-3.05l2.29-1.14c2.28-1.34,4.38-2.48,5.52-2.67,3.62-.76,6.1-.19,9.72,2.1,3.05,1.91,6.1,5.72,5.91,9.72-.19,3.24-1.71,5.15-2.29,5.72-1.14-.38-3.05-.95-5.15-1.91M142.9,63.07c-.19-.76-.19-1.14-.38-1.71l-.19-1.14v-.19c-.19-.76-.38-1.71-.57-2.29v-.19c-.38-1.34-.76-2.29-.95-3.05,1.52.57,2.86,1.14,3.81,1.34-.19,2.85,1.14,5.33,1.72,6.29l-3.43.95ZM143.85,69.55c-2.48-2.48-1.33-4.95-1.14-5.72l1.52-.38h.19c.19.19.57.95.57,1.91v.95c0,.76-.19,1.34,0,2.86.38,2.28,2.48,4.57,3.81,5.72-.76.19-1.52.19-2.29.57.19-2.29-1.52-4.57-2.67-5.91M138.33,58.11c1.52.38,2.28,1.14,2.86,1.52-.76-.38-2.1-.76-3.81-1.14-2.86-.57-4.19-2.48-4.95-3.62.76.19,1.33.38,1.53.57.38.38,1.52,1.72,4.38,2.67M137.19,53.16h.19c.76.19,1.34.57,1.91.76.19.19.76.76,1.33,2.48l-.38-.19c-.57-.38-1.34-.76-1.72-1.33-.76-.57-1.14-1.33-1.33-1.71M137.76,55.45c.57.57,1.33,1.15,1.91,1.53.57.19,1.33.76,1.33.95l.19.57c-.57-.38-1.34-.95-2.48-1.14-2.48-.76-3.62-1.91-3.81-2.28.19-.57.57-1.34,1.34-1.91.38.57.76,1.52,1.52,2.28M139.28,60.21l.19-.19c1.9.57,2.1.95,2.28,1.33,0,.57.19,1.33.38,2.1-.38.76-1.71,3.81,1.14,6.86,1.33,1.34,2.67,3.62,2.48,5.34-.38.19-.95.38-1.33.76,0-1.52-.95-3.24-3.05-4.95-3.24-3.05-2.29-6.1-1.71-8l.19-.76c.19-1.14-.19-2.1-.57-2.48M149.57,73.36c1.33,1.14,2.86,1.91,4.38,2.29l-.95.38-.19-.19c-.95-.38-1.72-.76-2.67-.76-.57-.57-4-3.24-4.19-6.1-.19-1.33-.19-1.91-.19-2.67l.19-.95c0-.76-.19-1.52-.57-2.1l.76-.19c.19.38.95,1.91.76,4.96,0,1.71.95,3.62,2.67,5.33M132.42,69.93c-.19-.57-.57-.76-1.14-.95,1.14-.38,2.1-.95,2.86-1.14l.57-.38.19-.57-.57-.19-.57.19c-1.71.76-5.9,2.67-7.43,2.67-.76,0-1.14-.19-1.52-.57s-.38-.95-.38-1.14c.19-.57.19-1.14,0-1.71-.19-.38-.76-.57-1.14-.57l.19-.57.76-.19.57-.38-.57-.57c-.57.19-.95.19-1.14.38l-.57-.57c.38-.57.38-1.14.38-1.53h.19l.76-.38.19-.57-.38-.38-.38.38h-.95l-.76.19c-.38.19-.57.19-1.14.19h-.38v-.76s.38-1.14.57-2.1c.95-2.67,1.14-3.43,1.14-3.62,0-.38-.38-1.91-.57-2.86,3.62.76,7.43,1.72,10.1,2.48.38.57,1.53,2.86,4.19,4v.19s.38.57.95.76c.38,0,.76,0,1.14-.19l.95.19c-.95,1.14-1.91.95-2.1.95l-.38.38.38.57s1.14.19,2.29-.76c.19.38.38.95.38,1.71l-.38.76c-.57,1.91-1.71,5.33,2.1,8.77,2.1,1.71,3.05,3.43,2.67,4.76-.57.38-1.14.76-1.71,1.14-4.19,2.48-8.19,4-12.57,4.76-2.1.19-3.81.38-5.72.57-1.33.19-2.67.38-4.19.57,1.72-2.48,3.43-4.19,5.34-4.95.76-.19,2.28-.38,3.62-.38.95,0,1.71,0,2.28-.19,1.34-.38,1.91-.95,2.48-1.71.38-.95-.38-5.72-.57-6.67M115.85,98.7c1.14-.95,6.1-7.43,6.29-7.81v-.57h-.57c-.19.19-4.57,6.1-6.1,7.62-2.1-1.53-3.62-1.53-4.57-1.33.38-2.1,1.71-8.38,5.15-8.77,1.9-.38,3.24-.57,4.19-.57,1.91-.38,3.24-.57,5.91-.95,4.38-.95,11.24-4.19,13.91-6.48.76-.38,1.33-.76,2.1-1.14,2.86-1.71,4.76-2.67,6.29-2.86-1.34.95-3.81,3.05-6.29,6.67l-2.29,3.43-.19.19c-.38.38-8.77,9.53-11.43,12.38l-2.67,2.67c-2.29,2.48-4.76,4.95-5.53,6.1l-.76.76c-.57.95-1.52,2.1-2.48,3.24-2.28-3.43-2.67-11.05-.95-12.57M88.41,67.26v-1.72l.19.76.19.19c.19.95.76,2.67.57,4.19l.38.57.38-.38c.19-1.34,0-2.48-.19-3.43-.19-.38-.76-3.81.57-6.48.57-1.33.95-2.48.95-3.43.57,1.14,1.14,3.05.57,6.29l.19.57.57-.19.19-.38c-.19.57-.38,1.52-.38,2.48,0,1.14.38,1.91.57,3.05.57,1.53.95,3.05.76,4.95-.19,2.29-.95,3.05-1.72,4.19l-.19.19h-3.24c-.19-.38-1.71-2.29-1.53-4.57.19-1.14.38-1.71.57-2.48.38-.76.57-1.71.57-3.05v-1.33ZM65.16,77.93c0,.76.38,1.34,1.14,1.91.76.38,1.52.57,3.05.76l7.05.19.57-.57-.57-.38-4.38-.19-.19-.38,23.62.38v.38c-.19.19-.57.57-1.33.76l-.38.38s-.19,2.29-2.29,2.29h-.19c-.76-.19-1.91-.38-3.24-.38-1.91.19-4,.57-4.38.57-.76,0-5.53-.38-6.48-.57-1.14-.38-1.71,0-1.91.19l-1.14-.38c-.95-.19-1.71.19-1.9.38-1.14-.38-1.91-.19-2.29,0l-.38.38c-3.24-.57-4.95-1.52-6.1-3.24-1.14-2.1-.57-4.57,1.52-5.72,1.14-.76,2.48-.76,3.62-.19.38.19.76.57,1.14.95-.57-.38-.95-.57-1.34-.57-1.14-.19-2.28.57-2.67.95-.38.57-.76,1.33-.57,2.1M114.89,108.8l-1.33,1.52c-2.28,2.48-4.38,4.95-6.1,4.95-2.28,0-7.24-4.76-8.77-7.81-.57-.57-1.52-2.48-2.67-4.76-3.62-7.05-7.05-13.34-9.15-14.29-1.14-.57-6.48-1.14-7.24-1.14-3.81-1.14-8.19-2.67-9.34-3.24.19,0,.57-.19,1.91.19l.38-.19s.38-.38,1.33-.19l1.33.19h.38s.38-.38,1.34-.19c1.14.38,6.29.76,6.67.76,0,0,2.29-.57,4.38-.57,4-.19,4.38,1.34,4.57,2.1v.19c.19,1.14,1.34,2.48,1.34,2.48.76,1.34,3.05,4.19,8.95,9.91,1.53,1.52,2.86,2.86,3.81,4l.19.19c2.1,2.86,2.67,4.57,2.67,4.57l.57.38.19-.57c0-.19-.57-1.91-2.67-4.76,1.14-2.28,2.67-4.57,3.05-5.15.38,0,2.1-.19,4.19,1.14-1.33,1.91-1.14,6.67,0,10.29M115.08,203.88c.38,1.33.57,2.67.57,3.62h-32.2v-3.62h31.63ZM83.46,199.49h2.86v3.81h-2.86v-3.81ZM108.41,199.49h3.05v3.81h-3.05v-3.81ZM99.84,199.49h3.43v3.81h-3.43v-3.81ZM91.46,199.49h3.24v3.81h-3.24v-3.81ZM86.88,199.49h4v3.81h-4v-3.81ZM85.74,198.92v-6.86c0-1.71,1.34-3.05,3.05-3.05s3.24,1.33,3.24,3.05v6.86h-6.29ZM95.27,199.49h4.19v3.81h-4.19v-3.81ZM94.12,198.92v-6.86c0-1.71,1.53-3.05,3.24-3.05s3.05,1.33,3.05,3.05v6.86h-6.29ZM103.65,199.49h4.19v3.81h-4.19v-3.81ZM102.7,198.92v-6.86c0-1.71,1.34-3.05,3.05-3.05s3.05,1.33,3.05,3.05v6.86h-6.1ZM114.32,199.49c.19,1.14.57,2.48.76,3.81h-3.05v-3.81h2.28ZM110.89,198.92v-6.86c0-.95.57-1.9,1.33-2.48.38,2.29.95,4.57,1.33,6.1l.38,1.52c0,.38.19.95.38,1.71h-3.43ZM111.46,186.35c.19.95.38,1.91.57,2.86-.95.57-1.53,1.71-1.53,2.86v6.86h-1.14v-6.86c0-1.9-1.71-3.62-3.62-3.62s-3.62,1.72-3.62,3.62v6.86h-1.14v-6.86c0-1.9-1.71-3.62-3.62-3.62-2.1,0-3.62,1.72-3.62,3.62v6.86h-1.33v-6.86c0-1.9-1.52-3.62-3.62-3.62-1.91,0-3.43,1.72-3.43,3.62v6.86h-1.9v-12.57h28.01ZM111.08,183.68l.19.95.19,1.33h-28.01v-2.28h27.63ZM90.32,177.77v5.52h-4.38v-5.52c0-1.34.95-2.29,2.1-2.29,1.33,0,2.29.95,2.29,2.29M96.6,177.77v5.52h-4.38v-5.52c0-1.34.95-2.29,2.29-2.29,1.14,0,2.1.95,2.1,2.29M103.08,177.77v5.52h-4.57v-5.52c0-1.34,1.14-2.29,2.28-2.29s2.29.95,2.29,2.29M109.37,177.77v5.52h-4.38v-5.52c0-1.34.95-2.29,2.1-2.29,1.33,0,2.29.95,2.29,2.29M111.08,183.3h-1.33v-5.52c0-1.53-1.14-2.67-2.67-2.67-1.33,0-2.67,1.14-2.67,2.67v5.52h-.95v-5.52c0-1.53-1.14-2.67-2.67-2.67s-2.67,1.14-2.67,2.67v5.52h-.95v-5.52c0-1.53-1.34-2.67-2.67-2.67-1.52,0-2.67,1.14-2.67,2.67v5.52h-1.15v-5.52c0-1.53-1.14-2.67-2.67-2.67-1.33,0-2.67,1.14-2.67,2.67v5.52h-1.9v-11.81l2.1.95v.19h25.34v3.24c0,2.1,0,4.57.19,7.43M114.7,197.02l-.38-1.52c-.57-2.67-1.71-7.81-2.1-10.86-.57-3.24-.57-6.29-.57-8.77v-1.52c0-1.52-.19-4.19-.19-6.29-.19-1.34-.19-2.67-.19-3.05,0-1.14-.19-2.28-.19-2.48-.19-1.91-.38-2.48-.38-4,0-1.71.57-5.9.57-5.9l-.38-.38-.19-.19-.57-.38c-1.14-1.71.57-8.38,1.52-11.24.38,0,.57.19,1.15.19,1.52,0,3.43-3.62,6.48-9.72l.57-1.34.76-1.71c2.48-4.95,8.19-16.77,9.34-19.05,1.53-2.67,11.62-19.63,14.1-22.67.38-.57.95-1.14,1.33-1.72,2.48-3.24,5.91-7.62,10.86-8.38h2.86c4.95.76,6.29,2.67,6.67,3.62-1.72-.57-5.53-1.52-8.58,1.91-4.19,4.57-4.95,28.77-4.95,28.96,0,1.52-.38,6.1-.76,8.57-.95-3.43-7.05-8.38-8.57-9.53.19-.95.95-4.57,1.52-7.05,3.05-13.15,7.24-19.82,7.24-19.82l-.19-.57h-.57c0,.19-4.19,6.86-7.43,20.2-.19,1.71-1.33,7.05-1.33,7.43v.38c.57.38,1.33.95,1.91,1.52-.38,2.1-3.24,16.96-4.57,21.53-1.34,4.76-4.38,12.39-5.53,14.86-1.34,2.67-6.1,11.05-8,13.91-1.52,2.28-6.1,9.14-5.72,19.05l.38.57.38-.57c-.19-9.72,4.19-16.39,5.52-18.48,2.1-3.05,6.86-11.43,8.2-14.1,1.14-2.48,4.19-10.1,5.72-15.05,1.14-4.19,3.81-17.72,4.38-20.96,2.86,2.48,6.29,5.91,5.9,7.81-.38,3.05-2.48,4.96-4,6.29l-.57.57c-1.33,1.34-4.57,7.24-4.95,11.81-.38,4-.38,11.82,2.86,19.06,1.14,3.05,2.86,6.29,4.38,8.95.95,1.91,1.91,3.62,2.1,4.57.57,1.71.95,4.19-.19,8.2l-2.1,6.86c-.57,1.15-.95,2.1-.95,3.24-1.33,5.91-4.38,16.39-7.05,18.86-2.1,1.91-3.81,2.1-6.48,2.29-.76,0-1.71,0-2.67.19-4,.57-5.72,2.67-7.24,4.57l-.38.57c-1.14,1.33-2.29,4.38-3.05,6.67-.38.95-.57,1.71-.76,1.9-.19.38-.76.76-1.52.76-.57-.19-1.14-.76-1.52-1.71-.95-3.05-.76-6.67-.57-8,.19-1.33.57-6.1.57-8.19s-1.52-8.77-1.91-10.67M149.95,244.84h-4c1.14-.57,2.28-1.14,3.43-1.91,0,.38.19,1.14.57,1.91M149.95,241.22c-4.38,4-9.91,4-12.38,4h-.19c-2.48,0-7.43-.76-10.86-4-3.43-3.05-5.14-3.43-6.29-3.43l-.38-.19h-.19c-.19-.19,0-1.14.19-1.71.19-.76.38-1.33.38-2.1,0-1.52-.38-6.48-.57-7.81l.76-.76c.19-.19.38-.95.76-2.1.76-2.1,1.91-5.14,2.86-6.29l.57-.76c1.33-1.71,3.05-3.62,6.48-4.19.95,0,1.9-.19,2.86-.19,2.48-.19,4.57-.38,6.86-2.48,2.28-2.1,4.76-9.34,6.29-15.43.38,2.85,1.14,5.72,1.72,8.38.38,1.34.76,2.48.95,3.43.76,3.24,1.14,7.62,1.53,11.81.57,6.86,1.33,13.53,3.24,16.01-1.91.38-3.62,1.71-5.34,4.19l.19.57h.57c1.72-2.67,3.62-4,5.53-4l.95.38c.57.76.57,1.9.57,2.67-1.52-.38-2.86,0-7.05,4M160.62,243.7v.19l-.38.38v.95l-.38.38-.38.19-.19.19v.95l-.38.19v-.19l-.57-.19-.19.38.19.57-.38.76-.76.38c0-.95-.57-1.71-.57-1.71h-.57l-.19.57c.19.19.57.76.38,1.33v.38s-.19.57-.95.57c-1.71,0-2.29-2.1-2.29-2.29,0-.57-.57-1.33-.57-1.52h-.19c-1.9-1.52-2.1-3.43-2.1-4l.38-.38c4.38-4,5.15-4,6.67-3.81v.19s1.34,1.52,2.48,3.24c1.33,1.71.95,2.28.95,2.28M160.81,241.41h6.29l3.05,3.43h-8.95v-.57c.19-.19.76-.95-.38-2.86M167.29,222.55h-.76c0-1.52.19-7.43.19-14.67h46.68c-12.39,13.34-28.39,23.44-45.73,28.77v-13.53l-.38-.57ZM227.31,189.01c-1.14,1.9-2.28,3.81-3.43,5.72v-2.67c0-1.71,1.33-3.05,3.05-3.05h.38ZM226.93,188.44c-1.9,0-3.62,1.72-3.62,3.62v3.24c-.38.76-.76,1.33-1.33,1.91v-5.15c0-1.9-1.52-3.62-3.43-3.62-2.1,0-3.62,1.72-3.62,3.62v6.86h-1.34v-6.86c0-1.9-1.52-3.62-3.62-3.62-1.9,0-3.43,1.72-3.43,3.62v6.86h-1.33v-6.86c0-1.9-1.72-3.62-3.62-3.62s-3.62,1.72-3.62,3.62v6.86h-1.34v-6.86c0-1.9-1.52-3.62-3.43-3.62-2.1,0-3.62,1.72-3.62,3.62v6.86h-1.34v-6.86c0-1.9-1.52-3.62-3.62-3.62-1.91,0-3.43,1.72-3.43,3.62v6.86h-1.33v-6.86c0-1.9-1.72-3.62-3.62-3.62s-3.62,1.72-3.62,3.62v6.86h-1.33v-6.86c0-1.9-1.52-3.62-3.43-3.62l-.95.19v-2.29h61.92c-.38.76-.76,1.53-1.33,2.29l-.57-.19ZM233.98,175.49c-.76,1.71-1.34,3.24-2.1,4.76v-2.48c0-1.14.95-2.1,2.1-2.29M231.5,177.77v3.43c-.38.76-.76,1.34-.95,2.1h-.19v-5.52c0-1.53-1.14-2.67-2.67-2.67-1.33,0-2.67,1.14-2.67,2.67v5.52h-.95v-5.52c0-1.53-1.14-2.67-2.67-2.67s-2.67,1.14-2.67,2.67v5.52h-.95v-5.52c0-1.53-1.34-2.67-2.67-2.67-1.53,0-2.67,1.14-2.67,2.67v5.52h-1.14v-5.52c0-1.53-1.14-2.67-2.67-2.67-1.33,0-2.67,1.14-2.67,2.67v5.52h-.95v-5.52c0-1.53-1.14-2.67-2.67-2.67s-2.67,1.14-2.67,2.67v5.52h-1.14v-5.52c0-1.53-1.14-2.67-2.67-2.67-1.33,0-2.48,1.14-2.48,2.67v5.52h-1.14v-5.52c0-1.53-1.14-2.67-2.67-2.67s-2.67,1.14-2.67,2.67v5.52h-.95v-5.52c0-1.53-1.14-2.67-2.67-2.67s-2.67,1.14-2.67,2.67v5.52h-1.14v-5.52c0-1.53-1.14-2.67-2.67-2.67-1.33,0-2.67,1.14-2.67,2.67v5.52h-.95v-5.52c0-1.53-1.14-2.67-2.67-2.67s-2.67,1.14-2.67,2.67v5.52h-.95v-2.67c.19-2.29.57-5.72,1.9-8h66.31c-.38.76-.76,1.52-.95,2.48-1.53,0-2.67,1.14-2.67,2.67M47.82,172.06h-9.14c-.19-.38-.38-.95-.57-1.34h9.72l.19-.19,18.67-10.29,18.86,10.29v.19h25.15v1.34h-24.96l-2.28-1.14-16.58-8.95h-.19l-18.86,10.1ZM48.02,183.3v-5.52c0-1.53-1.14-2.67-2.67-2.67s-2.67,1.14-2.67,2.67v3.81c-1.34-2.86-2.86-5.91-4-8.95h9.14l.19-.19,1.9-.95v11.81h-1.9ZM43.44,183.3l-.38-.76h.19v-4.76c0-1.34.95-2.29,2.1-2.29,1.33,0,2.29.95,2.29,2.29v5.52h-4.19ZM49.92,186.35v8.19c-1.71-2.67-3.24-5.33-4.76-8.19h4.76ZM44.97,185.97c-.38-.76-.76-1.52-1.14-2.28h6.1v2.28h-4.95ZM231.69,42.3C206.35,16.96,172.82,3.05,137,3.05s-69.36,13.91-94.7,39.25C16.77,67.64,2.86,101.18,2.86,137s13.91,69.36,39.44,94.7c25.35,25.34,58.88,39.44,94.7,39.44s69.35-14.1,94.7-39.44c25.34-25.34,39.25-59.07,39.25-94.7s-13.91-69.36-39.25-94.7M93.17,35.06c-1.33.57-2.48.76-3.24.19-.76-.38-1.14-1.14-1.52-2.28l-3.81-8.95c-.38-1.14-.57-1.72-.57-1.91.19-.19.95-.76,2.29-1.33,6.29-2.67,9.53,1.33,10.48,4,1.9,4.38,1.14,8.38-3.62,10.29M91.46,18.67c-1.9,0-3.62.57-5.72,1.53-1.9.76-3.81,1.71-5.9,2.67l.38.57.38-.19c1.14-.19,1.53.19,2.29,1.9l3.62,9.15c1.14,2.48,1.14,2.86-.19,3.62l-.38.19.19.57c1.14-.38,2.1-.76,3.05-1.33.76-.38,2.48-.76,4-1.34,1.9-.76,3.62-1.9,4.95-3.43,2.1-2.67,2.48-5.91,1.14-8.95-1.33-3.05-4.19-5.15-7.81-4.96M110.13,29.34l-.57.19c-1.52.19-1.71-.19-2.48-2.86l-2.48-8.95c-.76-2.48-.76-3.05.57-3.62l.57-.19-.19-.57c-1.14.38-2.1.76-3.05.95-1.14.38-1.91.57-3.24.76l.19.76.57-.19c1.52-.38,1.71.19,2.48,2.67l2.48,8.95c.76,2.67.76,3.05-.57,3.62l-.57.19.19.76c1.14-.38,2.1-.76,3.05-.95,1.14-.38,1.91-.57,3.24-.95l-.19-.57ZM211.88,51.83c2.1-3.24,4.95-7.05,6.48-9.34,1.14-1.34,1.52-1.72,2.86-.76l.57.19.38-.57c-.76-.38-1.34-.95-1.91-1.34-.38-.19-.95-.57-1.52-1.14-.76.95-2.29,1.52-4.57,2.86l-4.96,2.48c-1.33.57-2.67,1.33-4,1.9.19-1.33.57-2.67.76-4l1.14-6.48c.38-1.91.95-3.62,1.52-4.39-.76-.38-1.33-.76-1.71-1.14-.57-.38-.95-.76-1.71-1.34l-.38.57.38.19c1.14,1.14.95,1.52,0,2.86-.95,1.14-2.29,2.85-3.81,4.38-1.52,2.1-2.48,3.05-3.62,4.38-1.33,1.34-1.71,1.34-2.67.76l-.57-.38-.19.57c.57.57,1.52,1.14,2.1,1.52.76.57,1.52,1.34,2.29,1.91l.38-.57-.76-.57c-.76-.76-.57-1.14.57-2.67,1.33-1.72,2.67-3.62,3.81-4.76.95-1.14,1.91-2.29,2.86-3.62h.19c-.38,1.33-.76,2.67-.95,4l-1.14,5.52c-.38,1.34-.76,4-1.34,5.53l.19.19h.19c1.14-.57,3.43-1.9,5.91-3.05l4.57-2.29c.95-.38,3.05-1.52,3.24-1.71l.19.19-6.48,8.57c-.95,1.33-1.33,1.71-2.29,1.14l-.76-.38-.38.38c.95.76,1.91,1.33,2.67,1.9.76.57,1.52,1.14,2.28,1.91l.57-.57-.76-.57c-.76-.76-.38-1.33.38-2.28M67.45,50.68l-.76.38c-1.14.95-1.52.57-3.24-1.52l-7.62-8.77q-.57-.57,0-1.14l1.52-1.14c.95-.95,1.91-1.33,2.67-1.52.38,0,1.14.57,1.72,1.14l.38-.57c-.57-.57-1.72-2.29-2.1-3.24l-.57.19c.19.76,0,.95-.95,1.91l-8,6.86c-.95.76-1.52,1.33-2.29.76l-.38.38c.57.95,1.34,2.48,1.91,3.62l.57-.38c-.19-.57-.38-1.14-.19-2.1,0-.76,1.14-1.71,1.91-2.48l1.14-.95q.57-.57,1.14,0l7.43,8.96c1.91,2.1,1.91,2.48.95,3.43l-.57.76.38.38c1.14-1.14,1.91-1.71,2.67-2.29.76-.76,1.52-1.33,2.67-2.28l-.38-.38ZM120.8,27.44c-4.95.76-7.62-3.81-8.19-7.62-.76-5.72,2.28-8,5.15-8.38,4.76-.76,7.43,3.62,8,7.81.76,4.95-1.9,7.81-4.95,8.19M117.94,10.48c-5.33.76-8.57,5.33-7.81,10.48.76,4.57,4.76,8.19,10.48,7.43,4.95-.76,8.38-5.15,7.62-10.29-.76-4.57-4.38-8.38-10.29-7.62M136.04,18.1h-1.71v-7.05c0-.76.19-.76,1.71-.76,2.86,0,4.19,1.91,4.19,4-.19,1.9-.76,2.67-1.53,3.24-.76.57-1.71.57-2.67.57M146.14,26.67c-.57,0-1.33-.38-1.71-.76-1.71-1.52-3.05-3.62-5.15-7.05v-.57c1.14-.57,3.24-1.91,3.24-4.38,0-1.72-.95-2.86-2.1-3.62-1.14-.57-2.67-.76-4.38-.76-2.48-.19-4.19,0-5.72,0v.76h.76c1.14.19,1.14.57,1.14,3.05l-.19,9.34c0,2.86-.19,3.05-1.52,3.24l-.76.19v.57h6.48v-.57h-.57c-1.52-.38-1.52-.57-1.52-3.43v-3.24c0-.57.19-.57,1.34-.57.95,0,1.52.38,1.9.95.76,1.14,1.71,3.05,2.48,4,1.72,2.67,3.05,3.24,5.34,3.24h1.14l-.19-.38ZM163.67,13.34c.19-.19.76-.38,1.33-.38h.57l.19-.57c-.95-.19-1.72-.19-2.86-.38l-2.86-.57-.19.76h.76c.57.19.95.38,1.14.76.38.95,0,3.81-.38,5.53l-.38,2.86c-.57,3.81-2.48,6.67-6.29,6.1-3.81-.57-4.76-3.62-4-7.62l.76-5.72c.38-2.67.57-3.05,2.1-2.86h.57v-.57c-1.14-.19-2.1-.38-3.05-.38-1.14-.19-1.91-.38-3.24-.57l-.19.57.76.19c1.33.19,1.33.76.95,3.43l-.95,6.1c-.38,3.05,0,4.95,1.14,6.29,1.14,1.34,2.86,1.91,4.57,2.1,1.91.38,3.81,0,5.15-1.14,1.71-1.34,2.48-3.62,2.67-5.72l.57-3.05c.19-1.33.57-4.38,1.14-5.15M186.35,19.05c-.57,0-1.14-.19-1.91-.57-.38,1.14-1.52,2.1-3.43,4l-4,4c-.95.95-2.1,2.1-3.05,3.05-.38-1.33-.38-2.67-.57-4l-.95-6.67c-.19-1.91-.38-3.62.19-4.57-.95-.19-1.52-.38-2.1-.57-.57-.19-1.14-.38-1.91-.76l-.38.57.38.19c1.52.76,1.52,1.14.95,2.67-.57,1.33-1.33,3.43-2.1,5.52-.95,2.29-1.52,3.62-2.29,5.15-.76,1.71-1.14,1.71-2.28,1.52l-.57-.19-.19.76c.95.19,1.9.38,2.67.76.95.38,1.91.57,2.67.95l.19-.57-.95-.38c-.76-.38-.95-.95-.19-2.67.57-2.1,1.52-4.19,2.1-5.72.57-1.34,1.14-2.86,1.71-4.38v.19c.19,1.14.38,2.67.38,4l.57,5.53c.19,1.33.57,4.19.57,5.53l.19.19h.19c.95-.95,2.86-2.86,4.57-4.57l3.62-3.62c.95-.76,2.48-2.48,2.86-2.67l-3.43,10.29c-.57,1.52-.76,1.91-1.91,1.72l-.76-.19-.19.57c1.14.38,2.1.76,3.05.95.76.38,1.91.76,2.86,1.14l.19-.57-.76-.38c-1.14-.57-.76-1.14-.38-2.48.95-3.62,2.48-8.19,3.24-10.67.57-1.72.95-2.1,2.67-1.72h.38l.19-.57c-.76-.19-1.53-.38-2.1-.76M256.65,105.75l-9.15,2.1c-2.67.57-2.86.57-3.43-.76l-.19-.76-.76.19c.38,1.33.76,2.29.95,3.24l.57,2.29c.57,2.67,1.14,5.14,1.34,6.48.76.19,3.43.19,3.81.19v-.76c-1.52-.19-2.48-.57-2.86-.95-.38-.38-.57-.95-1.14-3.05-.38-2.1-.19-2.67,0-2.86.38-.57.95-.95,2.67-1.14l8.77-2.1c2.67-.57,3.05-.57,3.43.76l.19.57.76-.19c-.38-1.14-.57-2.1-.76-3.05-.38-.95-.57-1.91-.76-3.24h-.57v.76c.19,1.52-.19,1.71-2.86,2.28M55.45,56.21c-1.9-1.71-4.19-1.52-5.9-.95l-2.48.76c-.95.19-2.67.38-3.81-.57-.95-.76-1.72-2.28,0-4.19,1.71-1.91,3.43-1.33,4.57-.76l.38-.38c-.95-.76-2.1-1.52-2.67-1.9l-.76.57c-.57.38-1.33.95-1.91,1.52-2.48,2.67-2.29,5.33-.19,7.05,1.52,1.33,3.62,1.33,5.14.95l2.86-.76c2.1-.57,3.24,0,4.19.76,1.14,1.14,1.52,2.86,0,4.38-2.1,2.29-4.76,1.34-5.91.76l-.38.57c.95.76,2.48,1.71,3.24,1.91.38-.19,1.91-.76,3.43-2.29,2.28-2.48,2.28-5.53.19-7.43M255.32,126.14l4.57,1.33c.76.19,1.52.57,1.52.57-.19.19-.95.57-1.52.76l-4.19,1.72c-.57.19-.76.19-.76-.57l-.19-3.24c-.19-.57,0-.76.57-.57M248.65,123.09c-.95-.38-1.33-.95-1.33-1.52l-.19-.76h-.57c0,.76.19,1.71.19,2.48,0,1.33.19,2.1.19,2.67h.57v-.76c0-.57.19-.76.57-.76.19,0,.95,0,2.1.38l2.86.76c.38,0,.57.19.57.95l.38,3.81c0,.76-.19.95-.57,1.14l-3.62,1.33c-.57.38-.95.38-1.33.57-.19,0-.38-.38-.38-.95l-.19-.76-.57.19c0,.57.19,1.71.19,2.86s.19,2.1.19,3.24l.57-.19v-.57c.19-1.14.38-1.52,2.67-2.48l10.1-4.19c1.14-.57,2.29-.95,3.43-1.52l.19-.38c-.38-.19-.76-.57-.95-1.14-.57,0-.95,0-1.91-.38l-7.24-2.1c-3.05-.95-4.76-1.53-5.91-1.91M79.07,30.68c-.76-1.33-2.29-3.81-2.48-4.76-.19-.38.19-.76.76-1.14l.38-.38-.19-.57c-.95.57-1.52.95-2.29,1.52-.95.57-1.71.95-2.67,1.53l.38.57.57-.38c.57-.19.95-.38,1.33-.19.76.38,2.48,2.86,3.24,4.38l1.53,2.48c2.1,3.24,2.48,6.67-.76,8.57-3.24,2.1-5.9.38-8-3.05l-3.05-4.76c-1.34-2.28-1.52-2.67-.38-3.62l.57-.38-.38-.57c-1.15.76-1.91,1.33-2.67,1.91-.95.38-1.72.95-2.86,1.52l.38.57.57-.38c1.34-.57,1.52-.19,3.05,2.1l3.24,5.14c1.52,2.67,3.05,3.81,4.95,4.19,1.52.19,3.24-.57,4.76-1.34,1.71-1.14,3.05-2.67,3.24-4.38.38-2.1-.57-4.19-1.72-6.1l-1.52-2.48ZM10.29,146.33c-.19-2.86,1.71-4.38,3.81-4.38,1.71-.19,2.67.38,3.24.95.57.76.76,1.72.76,2.67.19,1.33.19,1.71,0,1.91h-.76l-6.09.38c-.76.19-.76,0-.95-1.52M10.67,151.29c.19-1.14.57-1.33,3.05-1.33l9.34-.57c2.67-.19,3.05-.19,3.24,1.33l.19.57h.57c0-1.33-.19-2.29-.19-3.24,0-1.14-.19-1.91-.19-3.24h-.57v.57c-.19,1.52-.57,1.71-3.24,1.71l-3.24.38c-.57,0-.57-.19-.57-1.34-.19-.95,0-1.33.57-1.9,1.14-.76,2.86-1.91,3.81-2.67,2.48-2.1,3.05-3.43,2.86-5.53,0-.57,0-.95-.19-1.14h-.19c-.19.76-.38,1.34-.76,1.91-1.33,1.72-3.24,3.24-6.48,5.53l-.57.19c-.76-1.33-2.1-3.05-4.57-3.05-1.91.19-2.86,1.14-3.62,2.48-.57,1.14-.57,2.67-.38,4.38.19,2.48.38,4.19.57,5.72h.57v-.76ZM40.96,74.12c-2.28-1.33-4.38-.76-6.1.19l-2.28,1.14c-.95.38-2.48.95-3.81.19-1.14-.57-2.29-1.91-.95-4.19,1.33-2.1,3.05-1.91,4.38-1.52l.19-.57c-.95-.57-2.29-1.14-2.86-1.14l-.57.57c-.57.57-1.14,1.34-1.52,1.91-1.91,3.05-1.14,5.72.95,6.86,1.91,1.14,4,.57,5.33,0l2.67-1.33c2.1-.95,3.24-.57,4.19,0,1.52.76,2.29,2.48,1.14,4.38-1.71,2.48-4.57,2.1-5.91,1.71l-.19.57c1.14.76,2.86,1.34,3.43,1.34.57-.19,2.1-1.14,3.24-3.05,1.72-2.86,1.15-5.72-1.33-7.05M13.72,168.82l-.19-.38c0-1.53.38-1.72,3.05-2.29l9.14-1.91c2.67-.57,3.05-.38,3.43.95l.19.76.76-.19c-.38-1.33-.57-2.28-.76-3.43l-.57-2.28c-.38-2.29-.95-4.38-1.33-6.86-.76,0-2.86-.38-3.81-.38v.76c1.53.38,2.48.76,2.86,1.33.38.38.57,1.14,1.14,3.05.38,2.28.19,2.86,0,3.24-.38.57-1.33.76-2.67.95l-3.62.76q-.57.19-.76-.57l-.38-1.52c-.19-.95-.19-1.72-.19-2.1s.38-.76.76-.95l.95-.38-.19-.57c-.57,0-1.52.38-2.29.57-.95.19-2.1.19-2.67.38l.19.57h.95c.76,0,.95.19,1.14.57.19.19.38.95.57,2.1l.19,1.53q.19.76-.57.95l-4.95.95c-.95.19-1.14.19-1.14-.57l-.38-1.71c-.38-1.14-.38-1.91-.38-2.48,0-1.53.95-1.91,1.91-2.48l-.19-.57c-.95.19-2.86.76-3.24.95.19.38.57,1.91.76,3.43l.95,4.76c.19,1.14.38,1.91.57,3.05h.76ZM11.05,119.09l.19-.57c.38-1.52.76-1.52,3.43-.95l9.15,1.52c2.67.38,3.05.57,3.05,2.1v.57l.57.19c.19-1.33.38-2.28.57-3.24,0-1.14.19-1.9.57-3.24l-.76-.19v.76c-.57,1.33-.95,1.33-3.62.95l-9.15-1.53c-2.67-.57-3.05-.57-3.05-2.1l.19-.76h-.76c0,1.33-.19,2.1-.38,3.24-.19.95-.38,1.91-.57,3.24h.57ZM13.34,132.23c2.1,0,3.62-1.33,4.57-2.48l1.91-2.48c1.33-1.71,2.67-1.9,3.81-1.71,1.53,0,2.86,1.14,2.67,3.43-.19,3.05-2.86,3.81-4.19,4.19v.57c1.34,0,3.05-.19,3.62-.38.38-.57,1.14-1.91,1.34-4,.19-3.43-1.52-5.72-4.38-5.91-2.48-.19-4,1.33-5.15,2.86l-1.52,2.1c-.57.76-1.9,1.9-3.24,1.9-1.33-.19-2.86-.76-2.67-3.24.19-2.67,1.9-3.24,3.05-3.43v-.57c-1.14-.19-2.48,0-3.24.19l-.19.95c-.19.57-.38,1.53-.38,2.29-.38,3.43,1.52,5.52,4,5.72M42.68,213.4c-.95.95-3.43,3.05-4.19,3.24-.38.19-.95,0-1.33-.38l-.57-.57-.38.57,1.91,1.91c.57.76,1.34,1.52,1.91,2.29l.57-.38-.38-.57c-.57-.57-.57-.95-.57-1.33.38-.76,2.67-2.86,3.81-4l2.28-1.91c2.86-2.67,6.1-3.62,8.57-.95,2.67,3.05,1.52,5.91-1.52,8.57l-4.19,3.81c-2.1,1.9-2.29,2.1-3.43,1.14l-.57-.38-.38.38c.95.95,1.52,1.52,2.29,2.29.57.76,1.14,1.52,2.1,2.48l.38-.38-.38-.57c-.95-1.14-.57-1.52,1.33-3.43l4.57-4c2.29-2.1,3.24-3.81,3.24-5.72,0-1.71-.95-3.24-2.29-4.57-1.33-1.33-3.05-2.29-4.76-2.29-2.1,0-4,1.33-5.72,2.86l-2.28,1.91ZM31.06,103.08l-.38.76c-.38,1.52-.76,1.34-3.43.76l-11.05-3.24c-.95-.38-.95-.19-.76-.95l.57-1.91c.38-1.33.76-2.28,1.33-2.67.38-.19,1.53-.19,2.1,0l.19-.76c-.76-.19-2.86-.95-3.81-1.52l-.19.57c.57.57.57.76.19,2.1l-2.86,10.1c-.38,1.14-.57,1.9-1.52,1.9v.38c.95.57,2.48,1.34,3.43,2.1l.38-.57c-.57-.57-1.14-.95-1.52-1.71s0-2.1.38-3.24l.38-1.34q.19-.76.95-.57l11.24,3.24c2.48.76,2.86.95,2.67,2.48l-.19.95.57.19c.38-1.71.57-2.48.95-3.43.19-1.14.57-1.91.95-3.24l-.57-.38ZM28.77,89.36l-1.33,2.86c-.19.76-.38.76-.76.38l-3.43-3.24c-.76-.57-1.14-1.14-1.33-1.34h.19c.19,0,.95,0,1.72.19l4.38.38q.76,0,.57.76M38.11,85.36l-.19.76c-.57.95-1.14.95-3.43.76l-11.05-.76c-1.14-.19-2.48-.19-3.62-.38l-.38.38c.19.38.38.95.38,1.52.38.19.76.38,1.53,1.14l5.33,5.15c2.28,2.29,3.62,3.62,4.38,4.38.76.76.76,1.52.57,2.1l-.19.76.57.19c.19-.57.57-1.52.95-2.28.57-1.14.76-1.91,1.14-2.48l-.57-.38-.38.76c-.38.57-.57.76-.76.57-.38-.19-.95-.57-1.91-1.33l-2.1-1.91c-.38-.38-.38-.57-.19-1.14l1.52-3.62c.38-.76.57-.76,1.14-.76l3.62.38c.76,0,1.14,0,1.33.19.38,0,.38.57.19.95l-.19.76.57.19c.19-.76.57-1.53,1.14-2.67.38-1.14.76-1.91,1.33-2.86l-.76-.38ZM31.25,196.83c-.95.57-3.62,2.48-4.76,2.67-.19,0-.57-.38-1.14-.95l-.19-.38-.57.38c.57.76.76,1.33,1.52,2.29.57.76.95,1.52,1.52,2.67l.57-.38-.19-.38c-.38-.95-.57-1.34-.38-1.71.38-.76,3.24-2.67,4.19-3.24l4.76-3.05c.38-.38.76-.57.95-.57-.38,1.72-.95,3.62-1.72,6.29l-.95,3.62c-.38,1.14-1.53,5.72-2.48,6.86l.76.95c.38.38.95,1.52,1.52,2.48l.57-.38-.19-.38c-.19-.57-.38-1.14-.38-1.72.19-.76.76-1.14,1.33-1.52l6.48-4c.95-.76,3.62-2.48,4.76-2.67.19,0,.57.19.95.76l.38.57.57-.38c-.57-.76-.95-1.33-1.52-2.28-.57-.76-.95-1.52-1.52-2.67l-.57.38.38.76c.19.57.38.95.19,1.33-.38.76-3.24,2.67-4.19,3.24l-4.96,3.24c-.57.38-1.14.57-1.52.76.19-.95.95-3.43,1.33-4.57l2.48-8.77c.95-3.24,1.33-4.38,1.71-4.95l-.76-.19c-.57.38-3.05,2.1-3.81,2.48l-5.15,3.43ZM22.1,173.2c-2.86-.19-5.14-.38-6.48-.76-.57-.19-1.14-.38-1.33-.95l-.38-.76-.57.38c.38.76.57,1.52.95,2.29.38.95.57,1.91.76,2.48h.76l-.19-.57c-.19-.76,0-1.14.19-1.34h.95c1.14,0,4.38.19,6.29.38,1.52,0,4.38.19,6.29.38-2.48,2.1-4.76,4.38-7.24,6.48-1.52,1.34-2.86,2.29-3.05,2.48-.19,0-.38-.19-.76-1.14l-.19-.19-.57.19c.38.95.76,1.9,1.14,2.86.19,1.14.57,1.9.76,2.67l.57-.19v-.38c-.38-1.14,0-1.72,1.14-2.86l9.15-8c.95-.76,1.9-1.71,2.86-2.29v-.38l-.19-.19c-1.52,0-4.76-.19-7.24-.38l-3.62-.19ZM33.34,185.97l-8.19,4c-2.48,1.33-3.05,1.33-3.81.19l-.19-.57-.57.19c.57,1.14.95,1.91,1.33,2.86.57,1.14.95,1.9,1.33,3.05l.76-.19-.38-.57c-.38-1.52-.19-1.71,2.29-2.86l8.38-4.19c2.48-1.14,2.86-1.34,3.62,0l.38.57.57-.38c-.57-1.14-.95-1.9-1.52-2.86-.38-.95-.76-1.71-1.33-2.86l-.57.19.19.57c.57,1.52.19,1.71-2.29,2.86M257.04,179.87l-.19.38c-.38.57-.76.95-1.33,1.14-.76.38-1.33.19-1.9-.19l-6.86-3.05c-1.14-.38-4-1.72-4.76-2.48-.19-.19-.19-.57,0-1.14l.19-.76-.57-.19c-.38.76-.57,1.52-1.14,2.48-.38.95-.76,1.71-1.14,2.67l.57.38.38-.76c.19-.57.57-.95.95-.95.95,0,4,1.33,5.15,1.71l5.14,2.29c.76.38,1.14.57,1.52.95-.76.19-3.43.95-4.57,1.34l-8.58,2.67c-3.43,1.14-4.57,1.34-4.95,1.53v.57c.57.19,3.43,1.33,4.19,1.72l5.72,2.48c.95.57,4,1.71,4.76,2.48,0,.19,0,.76-.19,1.71v.19l.57.38c.19-.95.57-1.52.95-2.48.38-.95.76-1.71,1.33-2.86l-.57-.38-.19.57c-.57.76-.95,1.14-1.14,1.14-.95.19-4-1.14-5.15-1.72l-5.15-2.28c-.38-.19-.76-.38-.95-.57,1.71-.57,3.62-1.14,6.1-1.9l3.62-1.15c1.33-.38,5.72-1.9,7.05-1.71l.38-1.14c.19-.57.76-1.72,1.33-2.67l-.57-.38ZM224.64,217.79l-2.86.57c-2.28.57-3.24-.19-4.19-.95-1.14-.95-1.33-2.86.19-4.38,1.91-2.29,4.57-1.14,5.9-.57l.38-.57c-.95-.76-2.67-1.71-3.24-1.91-.57.19-1.9.76-3.43,2.29-2.29,2.48-2.48,5.33-.38,7.24,1.91,1.72,4,1.52,5.91,1.14l2.28-.57c1.14-.38,2.86-.57,4,.57.76.76,1.71,2.29-.19,4.19-1.72,1.72-3.43,1.14-4.57.57l-.38.38c.95.76,2.1,1.71,2.67,1.91l.76-.57c.57-.38,1.33-.95,1.91-1.52,2.28-2.48,2.28-5.14.38-6.86-1.52-1.52-3.62-1.33-5.14-.95M240.46,97.56c-1.71-4.76,2.29-8.38,5.72-9.72,5.33-2.1,8.38.57,9.34,3.05,1.72,4.57-1.9,8-5.9,9.53-4.76,1.91-8,0-9.15-2.86M251.32,102.7c4.38-1.71,7.24-6.1,5.15-11.62-1.91-4.95-7.05-7.24-12-5.33-4.38,1.71-6.86,6.29-4.76,11.81,1.71,4.57,6.86,7.05,11.62,5.15M239.7,211.88l-.38.38c-.95,1.14-1.33.95-3.62-.76l-7.24-5.52c-2.28-1.72-2.48-2.1-1.71-3.43l.38-.38-.57-.38c-.76.95-1.33,1.72-1.9,2.67-.76.76-1.34,1.33-2.1,2.48l.57.38.38-.38c1.14-1.14,1.33-.95,3.62.57l7.24,5.72c2.28,1.71,2.48,1.9,1.71,3.24l-.38.57.57.38c.76-1.14,1.33-1.71,1.9-2.67.76-.76,1.14-1.52,2.1-2.48l-.57-.38ZM243.89,199.3c-1.91-1.14-3.81-.76-5.34,0l-2.67,1.14c-2.09.95-3.24.57-4.19-.19-1.33-.76-1.91-2.48-.76-4.19,1.53-2.67,4.38-2.1,5.53-1.71l.38-.57c-1.14-.76-2.86-1.34-3.43-1.34-.57.19-1.9.95-3.05,2.86-1.71,2.86-1.33,5.72,1.14,7.24,2.1,1.34,4.19.76,5.9-.19l2.29-.95c.95-.57,2.67-.95,3.81-.19.95.57,2.1,2.1.76,4.19-1.33,2.1-3.05,1.72-4.38,1.34l-.19.57c.95.57,2.29,1.14,2.86,1.33l.57-.57c.57-.57,1.14-1.33,1.71-1.91,1.71-2.86,1.14-5.53-.95-6.86M264.85,141h-.57v.38c-.19.57-.38,1.14-.95,1.52-.57.57-1.14.38-1.91.38l-7.43-.76c-1.14-.19-4.38-.38-5.34-.95-.19-.19-.38-.57-.38-1.14v-.76h-.57c0,.95-.19,1.71-.19,2.67-.19.95-.19,1.91-.38,3.05l.57.19.19-.76c.19-.76.38-1.14.57-1.33.95-.38,4.19,0,5.53,0l5.52.76c.76,0,1.33,0,1.72.19-.57.57-3.05,2.1-3.81,2.67l-7.43,5.33c-2.85,1.91-3.81,2.67-4.19,2.86l.19.57c.57,0,3.62.19,4.57.38l6.1.57c1.14.19,4.38.38,5.33.95.19.19.19.76.38,1.52v.38h.57c0-.95.19-1.53.19-2.67.19-.95.19-1.9.38-3.05h-.57l-.19.38c-.19.95-.38,1.33-.57,1.52-.76.38-4.19,0-5.34,0l-5.52-.57c-.57-.19-1.14-.19-1.14-.19v-.19c1.33-.95,2.86-2.1,5.15-3.62l3.05-2.29c.95-.76,4.76-3.43,6.1-3.81v-1.14c.19-.57.19-1.91.38-3.05M224.45,63.64c-1.33.38-2.48.57-3.05.38-.57-.19-1.14-.76-2.48-2.1-1.52-1.72-1.72-2.29-1.72-2.86s.57-1.14,1.52-2.1l2.67-2.48q.57-.57,1.14,0l.95,1.14c.76.76,1.14,1.14,1.33,1.52.19.57.19.95-.19,1.33l-.57.76.57.57c.38-.38.95-1.14,1.71-1.9.76-.57,1.52-1.14,1.91-1.72l-.38-.38-.95.57c-.57.38-.76.19-1.14.19-.19-.19-.76-.76-1.52-1.52l-1.14-1.14c-.38-.57-.57-.57,0-1.14l3.81-3.62q.76-.57,1.34,0l1.14,1.33c.95.76,1.33,1.34,1.71,1.91.76,1.14.19,2.1-.38,3.05l.38.57c.76-.95,2.1-2.29,2.28-2.67-.38-.19-1.33-1.33-2.48-2.48l-3.43-3.62c-.76-.76-1.33-1.52-1.91-2.28l-.57.38.19.38c.95,1.14.76,1.52-1.33,3.43l-6.67,6.29c-2.1,1.91-2.48,2.1-3.43,1.15l-.76-.57-.38.57c1.14.95,1.71,1.52,2.48,2.48l1.52,1.71c1.71,1.53,3.24,3.24,4.76,5.15.76-.38,2.67-1.34,3.43-1.72l-.38-.57ZM261.61,162.72l-.19.38c-.57,1.34-.95,1.34-3.62.76l-8.95-2.48c-2.67-.57-3.05-.76-2.86-2.29l.19-.95h-.57c-.38,1.53-.57,2.29-.95,3.43l-.57,2.28c-.57,2.29-1.14,4.38-1.71,6.67.57.57,2.28,1.71,3.24,2.1l.38-.57c-1.14-.95-1.91-1.91-2.1-2.48-.19-.57,0-1.34.38-3.24.57-2.28,1.14-2.67,1.52-3.05.38-.19,1.34,0,2.67.19l3.62.95c.57.19.57.38.38.95l-.38,1.52c-.19.95-.38,1.53-.57,1.91-.19.57-.76.57-1.14.57h-1.14v.57c.38.19,1.52.38,2.28.57.95.19,1.91.57,2.67.76l.19-.57-1.14-.57c-.57-.19-.57-.57-.57-.76,0-.38,0-1.14.38-2.29l.38-1.33c.19-.76.19-.95.95-.76l4.96,1.33q.95.19.76.95l-.38,1.91c-.38,1.14-.57,1.9-.76,2.28-.76,1.34-1.71,1.34-2.86,1.34l-.19.76c1.14.19,3.05.38,3.43.38,0-.38.38-1.71.76-3.43l1.34-4.76c.19-.95.38-1.91.76-2.86l-.57-.19ZM238.55,84.41l8.19-4.38c2.29-1.34,2.67-1.52,3.62-.19l.38.57.57-.38c-.76-1.14-1.14-1.91-1.71-2.86-.38-.95-.76-1.71-1.34-2.86l-.76.19.38.76c.57,1.33.19,1.52-2.29,2.86l-8,4.38c-2.48,1.33-2.86,1.33-3.81.19l-.38-.57-.57.38c.76,1.14,1.14,1.9,1.71,2.86.38.95.76,1.71,1.33,2.86l.76-.38-.38-.57c-.57-1.33-.19-1.52,2.28-2.86M228.07,73.55c-.95-1.33-1.33-2.28-.95-3.24.19-.76.95-1.33,1.91-2.1l8-5.33c.95-.76,1.52-.95,1.71-.95s.95.57,1.71,1.9c4,5.72.76,9.53-1.53,11.05-4,2.86-8,2.86-10.86-1.34M240.27,76.98c2.86-1.91,4.38-4.95,3.43-8.57-.38-1.71-1.33-3.43-2.67-5.15-1.14-1.91-2.48-3.62-3.81-5.33l-.57.38.19.57c.57.95.19,1.33-1.33,2.29l-8,5.72c-2.29,1.52-2.67,1.71-3.62.57l-.38-.57-.57.57c.76.95,1.33,1.72,1.9,2.48.57.76,1.34,2.28,2.29,3.62,1.14,1.72,2.67,3.24,4.38,4.19,2.86,1.53,6.1,1.14,8.76-.76M124.23,56.02l-.19-.19-.38-.76c.57,0,1.33.19,2.48.76-.76.19-1.52.19-1.91.19M127.85,56.02c-1.91-1.33-3.43-1.91-4.57-1.71h-.19l-.38.19h-.19v.38l.38.19.38.76-.38.38.38.38s1.91.57,3.81-.19l.19.19.57-.19v-.38ZM93.17,187.3c.38,0,.95.38.95.95s-.57.95-.95.95c-.57,0-1.14-.38-1.14-.95s.57-.95,1.14-.95M93.17,189.59c.76,0,1.33-.57,1.33-1.33s-.57-1.53-1.33-1.53c-.95,0-1.52.76-1.52,1.53s.57,1.33,1.52,1.33M109.75,187.3c.57,0,.95.38.95.95s-.38.95-.95.95-.95-.38-.95-.95.38-.95.95-.95M109.75,189.59c.76,0,1.52-.57,1.52-1.33s-.76-1.53-1.52-1.53-1.52.76-1.52,1.53.76,1.33,1.52,1.33M101.55,187.3c.57,0,.95.38.95.95s-.38.95-.95.95-.95-.38-.95-.95.38-.95.95-.95M101.55,189.59c.76,0,1.52-.57,1.52-1.33s-.76-1.53-1.52-1.53-1.52.76-1.52,1.53.76,1.33,1.52,1.33M172.05,189.2c-.57,0-.95-.38-.95-.95s.38-.95.95-.95.95.38.95.95-.38.95-.95.95M172.05,186.73c-.76,0-1.52.76-1.52,1.53s.76,1.33,1.52,1.33,1.33-.57,1.33-1.33-.57-1.53-1.33-1.53M180.44,189.2c-.57,0-.95-.38-.95-.95s.38-.95.95-.95.95.38.95.95-.38.95-.95.95M180.44,186.73c-.76,0-1.53.76-1.53,1.53s.76,1.33,1.53,1.33,1.52-.57,1.52-1.33-.76-1.53-1.52-1.53M188.82,189.2c-.57,0-.95-.38-.95-.95s.38-.95.95-.95,1.14.38,1.14.95-.57.95-1.14.95M188.82,186.73c-.76,0-1.34.76-1.34,1.53s.57,1.33,1.34,1.33c.95,0,1.52-.57,1.52-1.33s-.57-1.53-1.52-1.53M197.4,189.2c-.57,0-1.14-.38-1.14-.95s.57-.95,1.14-.95.95.38.95.95-.38.95-.95.95M197.4,186.73c-.95,0-1.53.76-1.53,1.53s.57,1.33,1.53,1.33c.76,0,1.34-.57,1.34-1.33s-.57-1.53-1.34-1.53M205.78,189.2c-.57,0-.95-.38-.95-.95s.38-.95.95-.95.95.38.95.95-.38.95-.95.95M205.78,186.73c-.76,0-1.53.76-1.53,1.53s.76,1.33,1.53,1.33,1.52-.57,1.52-1.33-.76-1.53-1.52-1.53M214.16,189.2c-.57,0-.95-.38-.95-.95s.38-.95.95-.95.95.38.95.95-.38.95-.95.95M214.16,186.73c-.76,0-1.33.76-1.33,1.53s.57,1.33,1.33,1.33,1.52-.57,1.52-1.33-.76-1.53-1.52-1.53M222.74,189.2c-.57,0-1.14-.38-1.14-.95s.57-.95,1.14-.95c.38,0,.95.38.95.95s-.57.95-.95.95M222.74,186.73c-.95,0-1.53.76-1.53,1.53s.57,1.33,1.53,1.33c.76,0,1.33-.57,1.33-1.33s-.57-1.53-1.33-1.53"/>
  <rect class="cls-1" x="6.36" y="12.73" width="91.21" height="91.27"/>
</svg>