<?xml version="1.0" encoding="UTF-8"?>
<svg id="Livello_1" data-name="Livello 1" xmlns="http://www.w3.org/2000/svg" viewBox="0 0 323.64 313.93">
  <defs>
    <style>
      .cls-1, .cls-2, .cls-3 {
        fill: none;
        stroke-width: 3px;
      }

      .cls-1, .cls-2, .cls-3, .cls-4 {
        stroke: #1d1d1b;
      }

      .cls-1, .cls-3, .cls-4 {
        stroke-miterlimit: 10;
      }

      .cls-2 {
        stroke-linejoin: round;
      }

      .cls-2, .cls-3 {
        stroke-linecap: round;
      }

      .cls-4 {
        fill: #1d1d1b;
      }
    </style>
  </defs>
  <path class="cls-1" d="m297.81,148.92c0,75.78-61.41,137.21-137.17,137.21S23.47,224.7,23.47,148.92,84.88,11.71,160.64,11.71s137.17,61.43,137.17,137.21Z"/>
  <path class="cls-1" d="m53.59,216.49c-12.38-19.54-19.55-42.72-19.55-67.56s6.8-46.82,18.6-66.04c.11-.17.21-.34.31-.51"/>
  <path class="cls-1" d="m265.02,219.76c-22.72,33.52-61.11,55.54-104.64,55.54s-80.33-21.12-103.21-53.47c-.05-.07-.09-.13-.14-.2"/>
  <path class="cls-1" d="m267.83,82.4c.13.21.26.42.39.63,11.74,19.18,18.51,41.75,18.51,65.89s-6.68,46.42-18.29,65.53c-.07.12-.14.23-.21.35"/>
  <path class="cls-1" d="m55.91,77.83c22.74-33.38,61.05-55.29,104.47-55.29s81.96,22.04,104.67,55.59"/>
  <polygon class="cls-1" points="182.87 167.46 180.92 156.7 212.4 177.65 209.46 184.49 182.87 167.46"/>
  <polygon class="cls-1" points="235.43 201.12 238.35 194.92 273.98 218.63 270.68 223.69 235.43 201.12"/>
  <polygon class="cls-1" points="141.48 167.77 142.09 157.79 108.84 179.93 111.76 186.42 141.48 167.77"/>
  <polygon class="cls-1" points="51.35 225.44 48.05 220.39 83.5 196.79 86.66 202.83 51.35 225.44"/>
  <polygon class="cls-1" points="179.16 143.6 178.31 133.68 187.27 127.72 191.02 136.01 179.16 143.6"/>
  <polygon class="cls-1" points="130.84 134.13 134.59 125.85 144.48 132.44 143.99 142.38 130.84 134.13"/>
  <path class="cls-2" d="m110.78,110.93l-4.77,7.62-9.92-6.22-3.88-.73c-.53-.1-1.04-.29-1.51-.55l-12.41-6.95-19.52.59-3.02-1.72c-1.35-.77-2-2.37-1.56-3.86l2.48-8.48c.47-1.61.1-3.35-.99-4.63l-8.57-10.09"/>
  <path class="cls-2" d="m105.8,119.74l4.98-7.48-9.75-6.48-2.26-3.24c-.31-.44-.69-.83-1.12-1.15l-11.44-8.46-7.49-18.04-2.81-2.04c-1.26-.91-2.98-.85-4.16.17l-6.71,5.75c-1.27,1.09-3.01,1.47-4.62,1l-12.72-3.66"/>
  <path class="cls-2" d="m210.31,110.93l4.77,7.62,9.92-6.22,3.88-.73c.53-.1,1.04-.29,1.51-.55l12.41-6.95,19.52.59,3.02-1.72c1.35-.77,2-2.37,1.56-3.86l-2.48-8.48c-.47-1.61-.1-3.35.99-4.63l8.57-10.09"/>
  <path class="cls-2" d="m215.29,119.74l-4.98-7.48,9.75-6.48,2.26-3.24c.31-.44.69-.83,1.12-1.15l11.44-8.46,7.49-18.04,2.81-2.04c1.26-.91,2.98-.85,4.16.17l6.71,5.75c1.27,1.09,3.01,1.47,4.62,1l12.72-3.66"/>
  <line class="cls-1" x1="106.62" y1="72.2" x2="106.62" y2="50.56"/>
  <path class="cls-1" d="m128.51,84.51c-13.9-2.31-22.77-7.15-21.9-12.3,1.24-7.32,24.41-12.3,54.32-12.3s55.09,5.08,54.91,12.3c-.14,5.74-7.41,10.07-21.64,12.3"/>
  <path class="cls-1" d="m215.71,50.83c0-5.03-24.78-10.22-54.29-10.45"/>
  <line class="cls-1" x1="215.71" y1="70.98" x2="215.71" y2="50.74"/>
  <path class="cls-1" d="m106.62,50.87c0-5.03,25.98-10.66,55.34-10.49"/>
  <path class="cls-4" d="m110.29,56.09c2.18.84,6.88.62,8.65-1.92-.02-.04.01-.05,0-.08-2.46,0-6.25-.26-8.66,2m11.01-3.33c-.13,2.79-3.39,4.9-6.81,5.32-2.68.32-5.29-.11-6.98-1.61,1.49-2.78,5.75-3.87,8.97-4.02,1.74-.08,3.63.04,4.82.31"/>
  <path class="cls-4" d="m132.23,52.09c-2-1.21-6.67-1.81-8.85.37,0,.04-.02.05-.02.08,2.42.42,6.11,1.35,8.87-.45m-11.42,1.35c.62-2.72,4.2-4.22,7.64-4.04,2.69.15,5.19,1.03,6.58,2.81-1.95,2.47-6.34,2.8-9.53,2.38-1.73-.23-3.56-.68-4.69-1.15"/>
  <path class="cls-4" d="m211.45,55.7c-2.4-2.26-6.19-1.99-8.66-2,0,.03.02.04,0,.09,1.76,2.53,6.47,2.76,8.65,1.92m-11.01-3.33c1.19-.27,3.07-.39,4.82-.31,3.22.15,7.48,1.24,8.97,4.02-1.68,1.5-4.3,1.93-6.98,1.61-3.42-.43-6.68-2.53-6.81-5.32"/>
  <path class="cls-4" d="m189.51,51.69c2.76,1.8,6.45.88,8.87.45,0-.03-.03-.04-.02-.08-2.18-2.18-6.85-1.58-8.85-.37m11.42,1.35c-1.13.47-2.96.92-4.69,1.15-3.19.42-7.58.09-9.53-2.38,1.39-1.77,3.89-2.66,6.58-2.81,3.44-.18,7.02,1.32,7.64,4.04"/>
  <path class="cls-3" d="m137.86,51.42c7.77-1.16,14.13-1.46,23.44-1.46s15.33.32,22.89,1.39"/>
  <path class="cls-3" d="m175.75,74.28c1.63,67.32,7.16,122.51,16.08,122.51"/>
  <path class="cls-3" d="m147.44,74.35c-1.63,67.32-5.67,122.44-14.58,122.44"/>
  <path class="cls-3" d="m132.38,196.89c1.63,3.2,13.77,6.53,29.16,6.53"/>
  <path class="cls-3" d="m191.83,196.79c-1.61,3.3-14.84,6.59-30.24,6.59"/>
  <path class="cls-3" d="m147.44,74.35s11.86-2.15,26.77-.07"/>
  <path class="cls-1" d="m146.7,74.41c4.29-.93-8.1,1.66-11.77,3.87-3.67,2.21-6.32,4.85-9,8.19-3.27,4.07-7.57,8.04-9.92,12.71-2.98,5.96-5.19,12.45-8.43,18.28-2.24,4.03-5.18,7.62-8,11.27-4.54,5.87-8.81,11.95-12.85,18.17-4.86,7.48-9.5,15.55-10.07,24.45-.56,8.83,2.99,17.41,7.32,25.13,2.61,4.65,5.58,9.26,6.58,14.49,1.01,5.27-.16,10.92-3.17,15.36-.48.71-1.03,1.46-1.02,2.32.03,1.93,2.56,2.57,4.48,2.65,8.75.34,17.5.68,26.26,1.02,3.49-6.19,7.1-12.98,6.12-20.02-.48-3.43-2.02-6.6-3.55-9.71l-7.93-16.16c-2.43-4.95-4.91-10.17-4.67-15.67.19-4.31,2.07-8.39,4.43-12,5.95-9.07,15.11-15.91,19.84-25.67,3.68-7.6,7.61-20.47,14.54-24.13"/>
  <path class="cls-1" d="m173.06,74.5c3.84-.88,10.35,1.01,14.02,3.22,3.67,2.21,6.91,4.46,9.59,7.8,3.27,4.07,6.38,8.31,8.73,12.98,2.98,5.96,4.67,12.52,7.91,18.34,2.24,4.03,5.18,7.62,8,11.27,4.54,5.87,8.81,11.95,12.85,18.17,4.86,7.48,9.5,15.55,10.07,24.45.56,8.83-2.98,17.41-7.32,25.13-2.61,4.65-5.58,9.26-6.58,14.49-1,5.27.16,10.92,3.17,15.36.48.71,1.03,1.46,1.02,2.32-.03,1.92-2.56,2.57-4.48,2.65-8.75.34-17.5.68-26.26,1.02-3.49-6.19-7.1-12.98-6.12-20.02.48-3.43,2.02-6.6,3.55-9.71l7.93-16.16c2.43-4.95,4.91-10.17,4.67-15.67-.19-4.31-2.07-8.39-4.43-11.99-5.95-9.07-15.11-15.91-19.84-25.67-3.68-7.6-4.83-17.09-11.6-22.14"/>
  <path class="cls-4" d="m164.38,138.01c2.88-2.09,6.48-8.27,4.71-12.62-.07-.01-.05-.06-.1-.08-2.03,3.15-5.51,7.77-4.61,12.7m4.86-16.81c3.45,2.47,3.44,8.38,1.15,13.09-1.81,3.69-4.52,6.67-7.83,7.57-2.31-4.19-.18-10.54,2.29-14.76,1.34-2.29,3.05-4.6,4.38-5.9"/>
  <path class="cls-4" d="m157.81,140.08c.15.19.38.57.47.42-.44-5.88-1.7-10.8-4.59-13.85-.06,5.71,1.68,10.4,4.11,13.43m2.88,6.95c-.22.18-.61-.31-.88-.52-4.19-3.38-8.13-9.52-8.69-16.91-.19-2.61.23-5.76,1.01-7.62,7.15,2.99,9.7,14.68,8.56,25.04"/>
  <path class="cls-4" d="m158.22,167.7c-.25-6.53-2.79-11.11-7.42-12.46.73,6.37,4.1,9.37,7.42,12.46m-7.62-27.84c0-.06-.07-.04-.05.06.44,4.14,1.18,7.99,2.81,10.57.52.84,1.15,1.65,1.99,2.04.02-5.44-1.66-10.41-4.75-12.67m5.95,16.49c3.03,2.96,4.75,10.55,3.5,15.58-.78-.37-1.43-1.04-2.15-1.6-2.1-1.66-4.14-3.56-5.83-5.82-2.02-2.69-4.18-7.74-2.61-12.02,1.31-.2,1.92.49,2.89.71-2.75-3.92-4.48-11.24-4.17-17.61.04-.02.05.01.06.05,3.54,1.08,5.96,4.06,7.56,7.83,1.57,3.74,2.26,9.46.75,12.88"/>
  <path class="cls-4" d="m170.66,153.6c-3.81,1.42-6.47,7.95-5.7,13.23,2.34-3.55,5.76-7.17,5.81-13.16,0-.03,0-.07-.05-.06h-.06Zm-3.53-3.37c2.17-3.07,5.92-7,5.28-11.99,0-.03,0-.07-.06-.07-2.41,2.63-5.69,6.94-5.22,12.06m6.57-16.02l.11.02c1.09,1.35,1.7,2.98,1.46,5.15-.56,5.1-3.46,8.66-5.59,11.68,1.59.2,2.41-.74,4.02-.52.03,10.06-5.73,17.32-11.02,21.84-.45-2.76-.76-5.38-.51-8.29.13-1.63.42-3.32.98-4.71.51-1.25,1.39-2.32,1.76-3.65.82-2.86-.61-5.36-.32-8.07.34-3.22,1.81-6.03,3.44-8.17,1.63-2.16,3.57-3.83,5.67-5.28"/>
  <path class="cls-4" d="m161.15,125.69c2.1-4.04,4.49-12.33,1.46-16.23-2.51,3.67-4.06,12.39-1.46,16.23m.8-20.64c4.2,1.82,5.57,6.15,5.12,11.39-.54,6.24-3.19,11.3-5.71,15.09-6.94-4.43-5.33-21.48.59-26.48"/>
  <path class="cls-4" d="m164.36,179.15c1.3,4.67,2.4,6.09.74,8.91-3.8,6.47-1.05-3.79-2.35-8.46-1.3-4.67-2.72-9.23-1.83-9.48.89-.25,2.14,4.36,3.44,9.04"/>
  <path class="cls-4" d="m155.26,174.87c-1.26.49-1.71,2.29-1.09,3.5.25.49.65.88.92,1.36.59,1.04.5,2.38-.08,3.42-.57,1.04-1.57,1.81-2.67,2.28-1.51.64-3.19.76-4.73,1.32-1.54.56-3.04,1.78-3.11,3.42.51,0,1.02-.21,1.4-.57.15.78.29,1.56.44,2.33.57-1.36,1.75-2.46,3.15-2.93,1.06-.36,2.21-.37,3.31-.57,2.74-.5,5.47-2.68,5.39-5.47-.03-.9-.33-1.76-.64-2.6-.3-.85-.61-1.69-.91-2.54.04-1.5,2.17-.37,3.16.19s2.78,1.05,2.68.72c-.04-.15-.11-.41-.16-.58-.05-.16-.15-.96-.27-1.07-1.43-1.43-4.24-3.2-6.82-2.19"/>
  <path class="cls-4" d="m163.62,176.5c.7-.28-.02,0,.74-.3,1.54-.61,3.31-1.26,4.77-.48.93.5,1.5,1.47,2.02,2.39.69,1.22,1.39,2.46,1.76,3.81.43,1.54.45,3.25,1.35,4.58.24.36.54.67.81,1,1.64,1.96,2.53,4.53,2.47,7.08-.64-.56-1.36-1.03-2.12-1.41.09.83-.24,1.69-.86,2.24.1-2.22-.7-4.48-2.18-6.13-.38-.42-.8-.81-1.1-1.29-.33-.53-.49-1.15-.65-1.76-.26-.98-.52-1.96-.77-2.94-.32-1.2-.64-2.42-1.35-3.45-.7-1.02-1.87-1.81-3.11-1.71-.9.07-.33.32-1.23.29"/>
  <path class="cls-4" d="m170.06,255.18c-1.24.15-1.79,2.01-2.92,2.45-1.81.69-4.7.02-6.62-.14-6.87-.6-12.54-.61-19.38-1.06-.93,5.37,4.24,4.87,9,5.13,8.99.49,19.96.64,28.18,1.07-.66-1.99-1.25-4.37-.8-7.03-2.21.36-5.24-.68-7.45-.42m-41-8.71c-.63.93-1.11,1.56-1.11,2.86,0,1.71.32,3.48,1.48,4.15,1.91,1.11,5.56,1.02,8.45.95,9.4-.23,18.36,1.36,27.48,1.23-.71-1.92-.93-4.65-.5-7.28-11.82-.72-24.46-1.3-36.38-1.94-.07.02.1-.25.07-.21m36.35-1.44c-2.1,0-4.14-.1-6.19-.19-5.41-.24-10.78-.65-16.1-.9-2.73-.13-5.4-.55-8.08-.43-1.15.06-2.49.27-3.26.76-.21.14-.54.33-.52.61,11.5.59,23,1.18,34.24,2.03.26-.21.35-.46.62-.66.36-.27.91-.39,1.04-.9-.41-.54-1.18-.33-1.75-.33m15.26,9.54c-.48.49-1.44,1.27-1.6,1.75-.32.94,0,2.27.18,3.17.22,1.02.21,2.44.51,3.28,2.58-1.92,4.94-4.9,7.19-7.15,2.25-2.26,4.93-5.06,7.05-7.45-.74-1.42-.42-4.14-.55-6.17-3.7,3.72-8.92,8.71-12.79,12.57m3.12-13.04s-.05.07-.04.14c-.25,1.43-1.54,2.2-2.51,3.17-1.75,1.75-3.37,3.42-4.96,5.15-.84.91-1.62,1.88-2.41,2.65-.17.17-.65.36-.57.52,1.24.1,2.56.12,3.73.19.41.02.96.15,1.23.09.3-.07,1.03-.89,1.42-1.27,2.34-2.34,4.49-4.59,6.76-6.85,1.19-1.2,2.21-2.37,3.49-3.21-2.04-.19-4.03-.43-6.14-.57m-3.06-5.36c-2.17,2.24-5.56,6.05-7.89,8.38-.33.33-.81.87-1.09.95-.48.13-.95.06-1.32.14-3.76.77-5.31,6.42-3.39,10.05,4.84-4.23,10.59-9.54,14.69-14.5-.68-.97-.55-3.81-1-5.02m-47.38,3.65c1.37,2.52,4.77,2.28,8.74,2.28,3.27,0,6.42.21,9.3.37,6.52.39,12.96.72,18.85,1.03-.83-1.98-1.07-4.61-.85-7.32-12.08-.34-23.35-1.36-35.24-1.88-1,1.15-1.35,1.63-1.2,3.78m51.59-15.35s1.21-1.26.25-.3c-2.2,2.2-5.36,5.51-7.84,7.99-1.09,1.09-2.46,2.09-3.73,3.22-1.16,1.02-2.68,2.43-2.84,4.16-.19,1.95.47,3.73.77,5.4,4.86-4.21,10.26-10.17,14.54-14.95-1.09-1.04.07-4.64-.57-6.14m-30.73-1.5c1.27,0,1.69.08-2.71,2.87-4.58,2.9-9.6,5.64-13.89,8.79-.09.07-.32.11-.28.29,10.16.32,20.05,1.37,30.28,1.65.71.02,1.59.21,2.08.09.39-.09,1.19-1.08,1.61-1.46.57-.53,1.09-1.02,1.6-1.51,3.15-2.96,6.2-5.7,8.98-8.89.07-.09.36-.42.18-.42-6.53-.06-21.36-.12-27.13-1.35-.06-.01,1.79.09,1.8.15m30.57-.31c-1.2,2.09-1.79,6.89,0,8.79-1.83,3.02-5.92,4.24-5.35,9.36,4.24.82,9.22.92,13.85,1.37.07.25-.18.47-.29.7-.95,2.11-1.49,6.49.38,8.13-4.61,5.14-9.64,10.2-14.64,15.21-.32.31-.81.88-1.04.94-.64.17-2.02-.06-2.98-.09-7.01-.28-13.52-.67-20.41-.99-3.55-.17-7.84-.24-11.62-.61-4.14-.42-7.64-1.8-6.85-6.67-3.21-.47-6.35-.15-8.98-.89-2.66-.75-4.05-2.69-3.87-5.96.11-2.06.96-4.12,2.31-5.15,1.12-.85,2.57-1.17,3.64-2.13-2.19-1.92-2.05-7.34-.38-9.55,1.02-1.34,3.16-2.34,4.78-3.21,5.12-2.76,11.58-7.32,16.39-10.13"/>
  <path class="cls-4" d="m192.33,93.39c1.48.17,1.63,1.68,2.6,2.36-3.93,3.66-7.44,7.74-11.6,11.17-.55-.9-1.33-1.56-1.94-2.4,3.99-3.38,7.48-7.25,10.95-11.13"/>
  <path class="cls-4" d="m202.05,101.97c-.58.68-1.81.94-2.35,1.51-.16-1.61-1.21-4.43-3.22-4.01-1.11.24-1.95,1.33-2.07,2.69-.27,3.08,1.4,6.84-.1,9.29-.68,1.11-2.37,2.07-4.39,1.89-2.37-.22-4.25-2.43-4.95-4.29-.23-.59-.57-1.82-.09-2.5.43-.62,1.79-.79,2.78-.47.02.98-.88,1.48-1.04,2.45-.21,1.23.71,2.02,1.22,2.92,1.4.44,2.83-.05,3.39-.94,1.16-1.83.56-5.06.67-7.83.1-2.87.92-5.75,4.34-5.43,1.38.13,2.64.92,3.58,1.7.99.83,1.76,1.88,2.22,3.02"/>
  <path class="cls-4" d="m132.61,113.62c-.03.46-.47.63-.3,1.14-2.66,1.03-6.51.92-9.53,1.61.27.48.84.8,1.37,1.09,1.56.88,3.72,1.4,5.24,2.37.06.98-.7,1.16-.74,2.04-4.82-1.5-8.21-4.41-13.25-5.69.58-4.08,7.06-2.45,10.51-3.74-.3-.43-.94-.79-1.52-1.09-1.69-.93-3.73-1.74-5.57-2.56.1-.68.46-1.12.78-1.61,4.34,2.15,8.79,4.19,13.01,6.45"/>
  <path class="cls-4" d="m207.19,115.38c-3.58,1.07-6.34,3.29-8.86,5.85,3.39-.35,6.81-.63,9.99-1.27,1.29,1.61,2.11,3.57,2.99,5.5-1.54,2.11-2.98,4.37-4.36,6.7,1.62-.42,3.07-1.83,4.61-2.84.4-.27,1.22-.92,1.53-.9.9.06.98,1.68,1.26,2.3-2.22,1.31-4.48,2.42-6.7,3.66-2.16,1.2-4.15,2.99-6.89,3.34,1.33-4.44,3.88-7.18,5.8-10.82-3.47,1.11-6.22,3.2-9.4,4.71-.3-.24-1.4-1.32-1.11-2,.13-.32,1.32-.59,1.65-.74,3.73-1.61,7.44-4,10.46-6.3-4.32,0-8.8.66-13.15,1.05-.53.05-1.49.25-1.88.13-.79-.23-1.07-1.77-1.27-2.49,1.2-.69,2.43-1.25,3.57-1.96,1.12-.71,2.17-1.51,3.24-2.35,2.13-1.69,4.16-3.77,6.08-5.48,1.26.99,1.91,2.44,2.47,3.93"/>
  <path class="cls-4" d="m128.72,124.9c0,1.56-.54,2.54-1.31,3.31-5.18-2.07-9.1-5.44-14.5-7.28.51-1.1,1.1-2.42,1.64-3.31,4.89,2.26,9.2,5.1,14.17,7.28"/>
  <path class="cls-4" d="m112.69,121.47c1.16.41,1.96,1.46,2.85,2.03-3.22-.11-5.1,1.9-5.15,4.89-.08,4.33,3.41,7.43,7.64,7.16,2.4-.16,4.41-1.64,4.65-4.19.15-1.62-.25-2.79-.68-3.91,1.14.41,2.23,1.28,3.11,2.12-1.61,4.35-2.88,10.27-9.04,9.84-1.96-.14-3.85-1.19-5.15-2.4-1.3-1.21-2.38-2.92-2.75-4.85-.45-2.29.15-4.85,1.12-6.26.55-.77,1.22-1.37,1.81-1.98.69-.71,1.15-1.52,1.58-2.45"/>
  <path class="cls-4" d="m216.68,135.09c-4.11,2.3-8.3,4.46-12.37,6.85-.91-.5-.79-1.57-1.54-2.16,4.02-2.39,8.31-4.68,12.03-7.39,1.1.63,1.04,1.91,1.88,2.7"/>
  <path class="cls-4" d="m217.07,136.92c1.15.7,1.07,2.1,1.84,3.02-2.25,2.12-4.33,4.55-6.39,7.01,3.63-.11,7.29-.15,9.9-2.1.5.88,1.51,1.47,1.51,2.63-5.22.26-9.82,1.65-14.55,2.8-.91-.78-1.47-1.76-1.97-2.76,3.47-3.08,6.2-7.5,9.66-10.6"/>
  <path class="cls-4" d="m117.42,143.94c-.32,1.84-1.65,2.7-3.35,3.23-3.14-4.33-6.97-7.98-11.47-10.92.54-1.35,2.21-1.62,2.81-2.9,3.77,3.78,7.07,8.02,12.01,10.59"/>
  <path class="cls-4" d="m100.65,137.91c1.47-.31,1.77,1.08,3,1.13-.52.5-1.2.78-1.81,1.34-.41.37-1.15,1.21-1.03,1.88.08.39.77.97,1.17,1.36,2.84,2.83,6.64,4.96,9.49,7.43-.4,1.07-1.63,1.52-1.91,2.69-3.88-2.55-7.25-5.83-10.98-8.58-1.51.89-2.58,2.1-3.06,3.76-.71-.39-1.09-1.27-1.66-1.85,1.77-3.44,4.75-5.95,6.8-9.18"/>
  <path class="cls-4" d="m229.96,154.18c-1.86-.66-1.06-4.28-3.68-4.06-2.57.22-3,5.09.38,4.77-.55,1.11-1.68,1.63-3.07,1.88.16-1.38-.2-2.65-1.17-3.06-1.11.33-2.45,1.09-3.3,1.98-.41.43-.9,1.11-.98,1.75-.23,1.7,1.41,2.26,2.77,2.64-.28.77-1.41,1.51-2.54.99-1.85-.85-2.93-4.01-4.01-5.66,2.51-.72,4.46-2.68,6.18-4.39.75-.75,1.57-1.47,2.4-2.17.88-.73,1.81-1.51,2.83-1.79.21-.06.66,0,.95.14,1,.45,1.72,1.2,2.59,2.21,1.09,1.25,2.5,3.56.67,4.76"/>
  <path class="cls-4" d="m228.71,163.94c-.96,4.72,5.44,4.56,5.8,1.18.1-.95-.19-1.62-.61-2.13-1.72.34-3.66.44-5.19.95m-5.94,8.82c-2.58.03-4.22,5.67-.94,5.99.29.03.55-.02.84-.1,2.85-.72,5.05-4.11,8.4-4.34,1.99-.13,3.79,1.47,3.53,3.54-.27,2.31-2.28,3.7-2.79,5.8-1.05-.32-1.58-1.18-2.78-1.37,1.29-.88,3.97-2.4,2.32-4.57-1.97.13-3.15.96-4.53,1.79-1.24.75-2.7,1.78-4.53,1.79-2.77.02-4.17-2.04-3.96-5.19.1-1.41.63-3.02,1.23-4.15.08-.15.23-.34.33-.57.29-.65.3-.77,1.23-.75-.09-.83.43-1.41.52-2.22,1.29-1.38,3.46-1.89,4.48-3.54-2.4-.22-4.29.49-5.9,1.23-.78-.57-.28-2.42-.71-3.35,4.85-1.34,11.23-1.41,15.19-3.49,2.41,3.69,2.29,11.61-3.73,11.09-1.51-.13-2.51-1.02-3.54-1.7-.3-.19-.78-.61-1.09-.66-.61-.1-1.56.37-2.08.66-.48.28-1.36.87-1.46,1.28-.04.18.07.55.05.8-.06.78-.52,1.39-.09,2.02"/>
  <path class="cls-4" d="m90.34,168.77c-1,.53-2.29.78-3.02,1.56,1.39-.11,2.25.29,3.5.31.05-.84-.12-1.44-.48-1.87m8.03-2.54c-.29.02-.8-.33-1.31-.37-1.45-.1-2.64,1-3.81,1.3v1.82c0,.53-.18,1.27,0,1.81.2.68,1.53.81,2.36.88.94.07,2.39-.11,3.02.21.63.32,1.41,2.05,1.67,2.75.41,1.09.62,2.16.81,3.53-4.49.36-6.5,3.11-10.28,4.15,1.99.71,4.99.17,7.54.31-.11,1.65-1.04,2.49-1.35,3.94,3.34-.54,5.35-2.36,7.92-3.63.1,1.08.94,1.44,1.02,2.54-5.52,1.87-10.28,4.49-14.86,7.26.05-1.07-1.09-1.34-1.08-2.23,0-.33.52-1.08.75-1.45.79-1.29,2.01-2.7,2.74-3.84-1.88-.86-4.86-.67-7.53-.78-.25-1.32-1.09-2.06-1.13-3.58,5.41-1.34,9.37-4.08,13.84-6.32-4.91-1.8-11.52-1.98-17.34-2.91,0-.93.06-1.92-.28-2.54,5.56-2.72,10.67-6.13,16.81-8.09.58,1.34.59,3.42.49,5.24"/>
  <path class="cls-4" d="m232.71,188.35c-1.6,4.36-4,7.92-5.76,12.12-1.19-.02-1.92-.5-2.69-.94-.08-.15.28-.4.47-.57.58-.53,1.32-1.15,1.79-1.79-3.06-2.89-7.4-4.52-11.42-6.46.22-1.11,1-1.67,1.18-2.83,3.49,2.45,7.88,3.98,11.83,5.94.85-.42.95-1.6,1.47-2.36-3.36-2.59-7.43-4.47-11.6-6.23.16-1.24,1.1-1.7,1.4-2.79,4.34,2.07,8.25,4.56,13.31,5.9"/>
  <path class="cls-4" d="m110.5,197.22c-5.05,1.72-9.65,3.84-14,6.23-.88-1-1.36-2.36-1.67-3.89,4.6-1.42,8.7-3.34,12.22-5.81-.21-2.03-2.7-1.86-4.31-2.54.79-.61,1.98-1.35,3.5-.98,2.75.64,4.22,3.89,4.26,7"/>
  <path class="cls-4" d="m217.09,200.89c.81.03,1.99.63,2.59,0-1.03-.14-1.16-1.2-2.31-1.22-.23.27-.33.68-.28,1.22m7.59,2.36c-4.02.93-8.38-.42-12.59-.19-.1.71.77,1.1.89,1.6-1.53,0-2.57.78-3.44,1.75-.79.89-2.05,3.03-.76,4.1.35.28,1.2.6,2.03.52,1.7-.18,2.89-1.88,4.05-3.16,1.14-1.27,2.4-2.73,4.29-2.93,2.95-.3,4.59,1.55,4.34,4.67-.14,1.75-1.45,2.22-1.42,4.57-1.08.14-1.93-.23-2.77-.47,1.61-.61,3-3.72,1.31-5.23-3.31.32-4.34,2.86-6.36,4.62-.83.72-1.64,1.48-3.16,1.37-2.17-.16-4.22-1.79-4.43-3.76-.04-.36-.03-.76,0-1.13.15-1.92,1.26-3.56,2.11-5.1.9-1.62,1.77-3.16,2.17-5,.6.09,1.18.32,1.85.42.61.1,1.49.26,2.07.05.82-.3.99-2.19,1.74-2.69-.65-1.45-2.05-2.16-3.3-3.02.34-.57.81-1.27,1.23-1.61,1.7,1.75,3.45,3.46,5.19,5.19,1.72,1.72,3.8,3.15,4.95,5.42"/>
  <path class="cls-4" d="m107.2,207.88c-.57.94-1.66,1.38-2.15,2.39,1.11-.04,2.08-.47,3.29-.26-.26-.82-.3-1.86-1.14-2.13m3.55-8.55c1,.71,1.21,2.47,1.83,3.37-.51,1.65-2.44,1.93-3.23,3.32.64,1.17,1.16,2.45,1.95,3.48,1.87.75,3.69-.28,5.11-.78-.14,1.39.48,2.29.27,3.58-5.65-1.32-12.46.68-18.38-.27,1.06-2.88,3.99-4.31,6.09-6.32,2.16-2.09,4.16-4.31,6.35-6.38"/>
  <path class="cls-4" d="m125.21,98.2c.29,1.97-3.39,3.04-1.92,5.26,1.43,2.18,6.07.16,4.15-2.68,1.27-.06,2.29.68,3.19,1.8-1.33.54-2.32,1.48-2.23,2.55.84.83,2.17,1.64,3.39,1.96.59.15,1.44.26,2.06.01,1.65-.63,1.38-2.36,1.08-3.76.84-.13,2.05.51,2.12,1.77.11,2.06-2.25,4.57-3.23,6.34-1.86-1.88-4.57-2.65-6.95-3.33-1.04-.29-2.09-.66-3.13-1.06-1.08-.42-2.24-.86-2.98-1.63-.15-.16-.31-.59-.32-.91-.07-1.1.27-2.11.77-3.39.62-1.58,2.05-3.97,4.02-2.93"/>
  <path class="cls-4" d="m144.46,98.59c-.32.38-.8.25-.99.8-2.92-.78-6.08-3.3-9.07-4.6-.08.59.19,1.22.45,1.81.75,1.75,2.23,3.56,2.87,5.35-.58.88-1.34.57-1.94,1.3-3.09-4.34-4.06-8.99-7.48-13.28,3.13-3.17,7.53,2.32,11.28,3.37.02-.56-.29-1.27-.58-1.9-.83-1.87-2.02-3.85-3.03-5.73.53-.53,1.12-.68,1.7-.91,2.27,4.6,4.7,9.16,6.79,13.78"/>
  <path class="cls-4" d="m190.73,85.37c-.33.83-1.42,1.48-1.74,2.19-.67-1.48-2.57-3.81-4.34-2.76-.97.58-1.42,1.88-1.09,3.21.73,3,3.53,6.02,2.9,8.83-.29,1.27-1.58,2.72-3.55,3.2-2.31.55-4.8-.94-6.06-2.47-.41-.49-1.12-1.55-.89-2.34.2-.72,1.44-1.32,2.48-1.34.33.92-.36,1.68-.19,2.65.2,1.24,1.32,1.68,2.1,2.38,1.47-.04,2.66-.96,2.91-1.99.51-2.11-1.1-4.97-1.89-7.62-.83-2.76-.98-5.74,2.36-6.54,1.35-.32,2.79.02,3.93.45,1.21.47,2.27,1.21,3.07,2.15"/>
</svg>